<svg width="26" height="26" fill="none" xmlns="http://www.w3.org/2000/svg"><path fill-rule="evenodd" clip-rule="evenodd" d="M20.778 5.222C16.482.926 9.518.926 5.222 5.222c-4.296 4.296-4.296 11.26 0 15.556l.14.137A11.44 11.44 0 0 1 13 18c2.936 0 5.61 1.107 7.639 2.915l.14-.137c4.295-4.296 4.295-11.26 0-15.556l.706-.707-.707.707Zm-1.726 16.966A9.439 9.439 0 0 0 13 20c-2.3 0-4.407.822-6.052 2.188a11.013 11.013 0 0 0 12.104 0ZM3.808 3.808c5.076-5.077 13.308-5.077 18.384 0 5.077 5.076 5.077 13.308 0 18.384-5.076 5.077-13.308 5.077-18.384 0-5.077-5.076-5.077-13.308 0-18.384Zm11.136 4.999a2.75 2.75 0 1 0-3.888 3.888 2.75 2.75 0 0 0 3.888-3.888Zm1.414-1.415-.707.708.707-.708a4.75 4.75 0 0 1 0 6.717l-.707-.707.707.707a4.75 4.75 0 0 1-6.716 0l.707-.707-.707.707a4.75 4.75 0 0 1 0-6.717l.707.708-.707-.708a4.75 4.75 0 0 1 6.716 0Z" fill="#0AA7FF"/></svg>