<svg width="90" height="28" fill="none" xmlns="http://www.w3.org/2000/svg"><g opacity=".8" fill-rule="evenodd" clip-rule="evenodd"><path opacity=".8" d="M41.487 0H3.794A3.793 3.793 0 0 0 0 3.784v20.312a3.793 3.793 0 0 0 3.794 3.785h29.873c1.685 0 3.241-.705 4.637-2.092.285-.288.718-.717 1.213-1.207 1.445-1.428 3.427-3.384 4.075-4.088a6.168 6.168 0 0 0 1.685-4.233V3.784A3.79 3.79 0 0 0 41.487 0ZM30.175 7.025c.658.013 1.3.205 1.858.556.493.288.887.719 1.13 1.235.229.496.33 1.04.298 1.585A4.261 4.261 0 0 1 30.963 14a8.426 8.426 0 0 1-5.102.597 7.378 7.378 0 0 1-2.89-1.301 9.54 9.54 0 0 1-2.543-2.924 9.161 9.161 0 0 0-3.74-3.743c-2.536-1.276-6.214-1.412-8.27 1.318-2.114 2.817-2.283 6.053-.458 8.91 2.237 3.492 7.674 6.342 14.78 4.835 7.934-1.68 11.134-6.934 12.352-9.916l.045-.115a22.53 22.53 0 0 1 1.486-3.294 2.41 2.41 0 0 1 1.9-1.235 2.067 2.067 0 0 1 2.027.864c.382.54.43 1.247.123 1.833-.168.307-.445.54-.776.655-1.313.411-1.412-.754-1.412-.754.582.115.975-.066 1.103-.412a.88.88 0 0 0-.083-.646.827.827 0 0 0-.826-.31c-.825.096-1.106.606-2.378 3.773l-.045.115a17.292 17.292 0 0 1-4.128 6.053 18.624 18.624 0 0 1-9.083 4.612c-3.23.734-6.604.55-9.735-.531a12.538 12.538 0 0 1-6.395-4.863 8.82 8.82 0 0 1-1.445-5.016A9.151 9.151 0 0 1 7.431 7.21a6.704 6.704 0 0 1 4.583-2.619 9.342 9.342 0 0 1 5.243.93 9.11 9.11 0 0 1 2.638 2.006c.619.678 1.16 1.422 1.614 2.22 2.436 4.2 6.35 4.307 8.95 3.125a3.056 3.056 0 0 0 1.768-2.533 1.791 1.791 0 0 0-.826-1.7c-1.094-.647-1.932-.367-2.35.107a1.278 1.278 0 0 0-.073 1.668c.177.201.544.148.701.102.372-.102.64-.905.64-.905.2.11.364.275.475.473a1.053 1.053 0 0 1-.607 1.507c-.875.387-1.754.264-2.258-.375a2.527 2.527 0 0 1 .19-3.294 2.724 2.724 0 0 1 2.056-.897Zm-19.908 7.127a7.588 7.588 0 0 0 3.006 3.294c1.606.906 3.245 1.318 5.664 1.421.492.025.986.025 1.478 0a14.09 14.09 0 0 1-3.369-2.685 16.506 16.506 0 0 1-1.957-2.693l-.099-.173c-.235-.411-.635-1.115-1.032-1.268a.89.89 0 0 0-.755 0 .672.672 0 0 0-.335.412c.006.249.058.495.153.725.447.814.986 1.576 1.606 2.269.413.452 1.499 1.647 1.499 1.647a4.586 4.586 0 0 1-1.858-.721 6.268 6.268 0 0 1-2.374-2.676 2.876 2.876 0 0 1-.24-1.47 1.885 1.885 0 0 1 .954-1.269 2.09 2.09 0 0 1 1.792-.086c.826.313 1.325 1.215 1.651 1.812.033.053.062.11.095.16.516.882 1.12 1.71 1.804 2.47a13.212 13.212 0 0 0 4.814 3.295l2.197.737-2.255.461c-1.262.235-2.547.33-3.83.284-2.622-.12-4.426-.576-6.214-1.569a8.927 8.927 0 0 1-3.522-3.854 5.37 5.37 0 0 1-.433-2.376 5.14 5.14 0 0 1 .747-2.594c.557-.901 1.693-1.984 3.906-2.059a5.76 5.76 0 0 1 2.477.635 7.376 7.376 0 0 1 2.968 3.018 9.585 9.585 0 0 0 8.2 4.986c1.02 0 2.04-.075 3.05-.226a5.679 5.679 0 0 1-3.092 1.445 10.94 10.94 0 0 1-5.264-1.52 11.292 11.292 0 0 1-3.947-4.043A6.184 6.184 0 0 0 15.3 9.405a4.472 4.472 0 0 0-1.928-.503c-1.33.037-2.3.527-2.89 1.458a4.37 4.37 0 0 0-.215 3.792ZM22.294 1.346c.439.254.86.536 1.263.845.332.238.624.529.863.86a1.253 1.253 0 0 1-.413 1.833 17.806 17.806 0 0 0-1.651-1.8 10.623 10.623 0 0 0-2.478-1.738h2.416Zm-15.338 0a5.644 5.644 0 0 0-2.192 1.536 5.123 5.123 0 0 0-.314-1.564l2.506.028ZM1.412 3.784a2.47 2.47 0 0 1 1.197-2.137 4.75 4.75 0 0 1 .19 2.425 13.25 13.25 0 0 1-.826 2.69c-.202.518-.412 1.024-.553 1.523l-.008-4.5v-.001Zm2.386 22.75a2.445 2.445 0 0 1-2.444-2.438v-1.235c.826 1.355 1.916 2.421 3.65 3.669l-1.206.004Zm4.211 0a19.891 19.891 0 0 1-2.064-1.429 17.483 17.483 0 0 1-4.583-5.381v-3.155c1.528 4.863 5.31 8.211 9.31 9.965H8.009Zm22.405 0a8.402 8.402 0 0 0-1.928-.906c-1.564-.387-2.997-.07-4.66.26a24.277 24.277 0 0 1-6.57.535 19.032 19.032 0 0 1-5.531-1.277 14.096 14.096 0 0 1-4.542-2.882 16.21 16.21 0 0 1-3.022-3.817c-1.238-2.199-1.84-4.352-1.754-6.403.053-1.183.294-2.35.714-3.459a13.007 13.007 0 0 1 1.833-3.232 10.145 10.145 0 0 1 6.606-3.879c.463-.07.93-.112 1.4-.128h.825c1.69.042 3.351.455 4.863 1.211a11.556 11.556 0 0 1 3.08 2.327c.945.998 1.77 2.103 2.456 3.294.054.098.112.19.166.28.092-.51.264-1.001.507-1.458.174-.342.376-.663.57-.98.516-.824 1.028-1.499.954-2.355a2.858 2.858 0 0 0-1.685-2.298H26.7a2.645 2.645 0 0 1 1.123 2.598c-.124.993-.855 1.915-1.342 2.701-.19.31-.372.602-.524.902a4.11 4.11 0 0 0-.463 2.314c.07.567.194 1.126.372 1.668a3.833 3.833 0 0 1-1.239-.712 8.838 8.838 0 0 1-1.507-2.022c-1.432-2.45-3.125-4.184-5.036-5.164a10.53 10.53 0 0 0-4.715-1.078c-.543 0-1.085.04-1.623.119a8.914 8.914 0 0 0-5.78 3.401 12.007 12.007 0 0 0-1.65 2.936 9.946 9.946 0 0 0-.64 3.08c-.08 1.816.458 3.747 1.589 5.74a14.095 14.095 0 0 0 6.927 6.148c3.633 1.408 7.283 1.568 11.63.61 2.027-.446 3.807-.619 5.668 0a16.292 16.292 0 0 1 3.402 1.91l-2.477.016h-.001Zm4.57-.222c-1.688-1.5-3.463-2.586-4.908-2.986l-1.499-.411a14.774 14.774 0 0 0 2.295-1.186s1.239.12 1.87.103a9.796 9.796 0 0 1-1.081.724 18.385 18.385 0 0 1 4.607 3.142c-.39.277-.823.484-1.284.614Zm4.79-3.891c-.24-.12-.47-.258-.69-.412-.612.282-1.25.5-1.907.65a9.99 9.99 0 0 0 1.407.89l-.895.918a14.402 14.402 0 0 1-2.506-1.82 6.603 6.603 0 0 0-.966-.745s.697-.078 1.432-.214a13.582 13.582 0 0 0 3.088-1.017l.33-.173.413.317c.37.292.79.515 1.239.659-.318.35-.673.679-.946.947h.001Zm4.037-5.127a4.472 4.472 0 0 1-1.14 2.178h-.024l-.149.186-.59.605a4.26 4.26 0 0 1-1.478-.548 6.955 6.955 0 0 0 1.218-1.186l.38-.625s1.238-.21 1.824-.824c.009-.025-.053.214-.041.214Zm.116-12.962A5.723 5.723 0 0 0 40.83 2.75a11.92 11.92 0 0 0-4.454.028c-.57.106-1.124.28-1.652.52l-.313.156-.306-.16a5.031 5.031 0 0 0-3.385-.64c.097.482.126.974.086 1.463a8 8 0 0 1 2.8.823c.351.209.688.441 1.007.696a4.71 4.71 0 0 1 2.064-1.165 6.82 6.82 0 0 1 2.754-.264 6.141 6.141 0 0 1 2.89 1.026 3.896 3.896 0 0 1 1.593 3.059 5.514 5.514 0 0 1-.462 2.73c-.698 1.474-2.341 2.5-4.335 2.734-.492 1.248-1.2 2.4-2.089 3.405-.1.132-.553.713-1.172 1.388.173-.05.355-.099.54-.165a6.578 6.578 0 0 0 3.749-2.882l.149-.26.301-.04a6.52 6.52 0 0 0 3.369-1.734v1.618a7.885 7.885 0 0 1-2.903 1.28 8.003 8.003 0 0 1-4.31 3.192c-.82.27-1.672.434-2.534.49l-1.598.103c.877-.68 1.663-1.47 2.337-2.351a28.198 28.198 0 0 0 1.65-2.327 12.79 12.79 0 0 0 1.21-2.298l.413-1.058c.256.084.517.151.78.202a3.357 3.357 0 0 0 3.303-1.828 4.264 4.264 0 0 0 .343-2.125c-.107-1.713-1.18-2.648-3.394-2.94-1.21-.16-3.34.255-4.025 1.429l-.413.729-.565-.622a5.968 5.968 0 0 0-1.239-.96 6.74 6.74 0 0 0-2.68-.695 6.551 6.551 0 0 0-1.097.082l.21-.799a3.865 3.865 0 0 0-.235-2.223l-.318-.618a6.546 6.546 0 0 1 2.337-.412 6.81 6.81 0 0 1 3.232.72 10.99 10.99 0 0 1 3.37-.712h1.568c.553.036 1.105.1 1.651.194a7.22 7.22 0 0 1 2.477.93c.252.393.385.849.384 1.314l.009.548v.001Z" fill="#A1A5AF"/><path opacity=".8" d="M52.276 15.439h1.595v7.492h-1.595v-7.492Zm.756-3.27c.561.003 1.015.446 1.015.991a.995.995 0 0 1-.631.923c-.383.155-.825.07-1.118-.216a.976.976 0 0 1-.218-1.088c.16-.372.537-.613.952-.61Zm7.97-1.413h-1.725c0-4-1.913-5.494-2.67-5.925-.756.435-2.665 1.93-2.665 5.925h-1.725c0-6.091 3.927-7.59 4.094-7.65L56.607 3l.301.106c.167.06 4.094 1.543 4.094 7.65Zm19.228 0H78.5c0-4-1.913-5.494-2.665-5.925-.756.435-2.665 1.93-2.665 5.925h-1.73c0-6.091 3.927-7.59 4.099-7.65L75.835 3l.3.106c.18.06 4.095 1.543 4.095 7.65ZM90 22.92h-1.725c0-3.996-1.913-5.49-2.67-5.925-.755.434-2.664 1.929-2.664 5.925h-1.726c0-6.092 3.927-7.586 4.094-7.647l.297-.106.3.106c.167.061 4.094 1.543 4.094 7.647Zm-24.236-7.63c.167.06 4.094 1.538 4.081 7.646h-1.73c0-3.996-1.913-5.49-2.664-5.925-.756.435-2.665 1.93-2.665 5.925H61.06a10.28 10.28 0 0 1 .836-4.264c-.4-.68-.96-1.25-1.633-1.66-.757.438-2.666 1.932-2.666 5.924h-1.725c0-6.108 3.927-7.586 4.094-7.647l.3-.105.297.105a5.74 5.74 0 0 1 2.298 1.787c.6-.785 1.392-1.4 2.301-1.787l.301-.105.3.105.001.001Zm10.017 7.203c-1.508-.02-3.013.15-4.478.508l4.682-5.92h-4.373v-1.674h7.937l-.31.345-3.947 5.048h.213a19.319 19.319 0 0 1 4.27.406c-.062.53-.093 1.063-.093 1.596v.097a19.08 19.08 0 0 0-3.901-.406ZM87.176 8.957a17.315 17.315 0 0 0-3.834-3.248v5.047h-1.596v-7.67l1.224.535a19.883 19.883 0 0 1 5.184 4.004V3.272h1.595v9.056a22.183 22.183 0 0 0-2.573-3.37v-.001ZM62.77 8.831a9.24 9.24 0 0 0 2.953.39c.508-.01 1.014-.052 1.516-.126l-5.35-4.824a7.943 7.943 0 0 1 3.404-1.218h.184l.363-.033h.677c.995.01 1.987.124 2.957.341l-.209.813-.208.812a12.02 12.02 0 0 0-3.104-.276c-.318.02-.634.058-.948.113l5.338 4.808a6.44 6.44 0 0 1-3.066 1.186c-.499.064-1 .102-1.504.114h-.259a10.741 10.741 0 0 1-3.341-.528l.597-1.572Z" fill="#8D949D"/></g></svg>