<svg width="120" height="40" viewBox="0 0 120 40" fill="none" xmlns="http://www.w3.org/2000/svg">
<path opacity="0.8" fill-rule="evenodd" clip-rule="evenodd" d="M55.6087 2.5H8.4925C7.23677 2.49967 6.0322 2.9975 5.14309 3.88426C4.25399 4.77102 3.75298 5.97428 3.75 7.23L3.75 32.62C3.75265 33.8759 4.25351 35.0795 5.14265 35.9665C6.03179 36.8536 7.23656 37.3516 8.4925 37.3512H45.8337C47.94 37.3512 49.885 36.47 51.63 34.7362C51.9863 34.3762 52.5275 33.84 53.1462 33.2275C54.9525 31.4425 57.43 28.9975 58.24 28.1175C59.5916 26.6872 60.3452 24.7942 60.3463 22.8263V7.23C60.3443 5.97484 59.8443 4.77176 58.956 3.88493C58.0678 2.9981 56.8639 2.5 55.6087 2.5ZM41.4688 11.2812C42.2912 11.2975 43.0938 11.5375 43.7913 11.9762C44.4075 12.3362 44.9 12.875 45.2037 13.52C45.49 14.14 45.6162 14.82 45.5762 15.5013C45.5117 16.4635 45.1872 17.3902 44.6373 18.1825C44.0874 18.9748 43.3327 19.603 42.4538 20C40.4574 20.9065 38.2279 21.1674 36.0762 20.7463C34.7685 20.4723 33.5359 19.9174 32.4638 19.12C31.1653 18.132 30.0834 16.888 29.285 15.465C28.2208 13.4795 26.5946 11.8521 24.61 10.7863C21.44 9.19125 16.8425 9.02125 14.2725 12.4338C11.63 15.955 11.4187 20 13.7 23.5713C16.4963 27.9363 23.2925 31.4987 32.175 29.615C42.0925 27.515 46.0925 20.9475 47.615 17.22L47.6712 17.0763C48.1792 15.6562 48.8003 14.2793 49.5288 12.9587C49.7678 12.5265 50.1094 12.1596 50.5236 11.8905C50.9377 11.6213 51.4117 11.458 51.9037 11.415C52.3849 11.3377 52.8782 11.3981 53.3265 11.5892C53.7749 11.7803 54.16 12.0943 54.4375 12.495C54.915 13.17 54.975 14.0538 54.5913 14.7863C54.3813 15.17 54.035 15.4613 53.6213 15.605C51.98 16.1188 51.8563 14.6625 51.8563 14.6625C52.5838 14.8062 53.075 14.58 53.235 14.1475C53.305 13.875 53.2678 13.586 53.1313 13.34C53.0133 13.1845 52.8537 13.0656 52.671 12.9971C52.4883 12.9285 52.2899 12.913 52.0988 12.9525C51.0675 13.0725 50.7162 13.71 49.1262 17.6688L49.07 17.8125C47.9102 20.6742 46.1507 23.2542 43.91 25.3787C40.7347 28.3182 36.8031 30.3146 32.5562 31.1438C28.5187 32.0613 24.3013 31.8313 20.3875 30.48C17.1283 29.3854 14.3195 27.2495 12.3938 24.4012C11.1728 22.5414 10.5432 20.3556 10.5875 18.1313C10.6865 15.7218 11.5444 13.4052 13.0388 11.5125C13.7224 10.6075 14.5826 9.85079 15.5674 9.28807C16.5521 8.72534 17.6408 8.36836 18.7675 8.23875C21.0186 7.98227 23.2957 8.38618 25.3213 9.40125C26.5645 10.0284 27.6822 10.8783 28.6188 11.9087C29.3925 12.7563 30.0688 13.6862 30.6363 14.6838C33.6813 19.9338 38.5737 20.0675 41.8237 18.59C42.4402 18.3061 42.9698 17.8632 43.3582 17.3067C43.7467 16.7502 43.9798 16.1002 44.0338 15.4237C44.077 15.0085 44.0033 14.5894 43.8208 14.2139C43.6384 13.8383 43.3545 13.5213 43.0012 13.2987C41.6337 12.49 40.5863 12.84 40.0638 13.4325C39.8011 13.7114 39.6473 14.0753 39.6306 14.458C39.6138 14.8408 39.7352 15.2168 39.9725 15.5175C40.1938 15.7687 40.6525 15.7025 40.8488 15.645C41.3138 15.5175 41.6488 14.5138 41.6488 14.5138C41.8988 14.6512 42.1038 14.8575 42.2425 15.105C42.3355 15.2754 42.3895 15.4644 42.4008 15.6582C42.4121 15.852 42.3804 16.0459 42.3078 16.226C42.2353 16.4061 42.1238 16.5679 41.9813 16.6998C41.8388 16.8316 41.6689 16.9303 41.4837 16.9887C40.39 17.4725 39.2913 17.3187 38.6613 16.52C38.2009 15.9191 37.9717 15.1729 38.0152 14.4171C38.0588 13.6614 38.3724 12.9465 38.8988 12.4025C39.223 12.0439 39.6199 11.7584 40.063 11.5651C40.5061 11.3717 40.9853 11.275 41.4688 11.2812ZM16.5837 20.19C17.3956 21.9079 18.7046 23.3423 20.3412 24.3075C22.3487 25.44 24.3975 25.955 27.4212 26.0838C28.0363 26.115 28.6538 26.115 29.2688 26.0838C27.7013 25.1875 26.2809 24.0555 25.0575 22.7275C24.1307 21.6907 23.3111 20.5629 22.6112 19.3612L22.4875 19.145C22.1938 18.6313 21.6938 17.7513 21.1975 17.56C21.0498 17.4908 20.8887 17.455 20.7256 17.455C20.5625 17.455 20.4014 17.4908 20.2537 17.56C20.1526 17.6129 20.0633 17.6858 19.9913 17.7744C19.9194 17.8629 19.8662 17.9652 19.835 18.075C19.8425 18.3863 19.9075 18.6938 20.0262 18.9813C20.585 19.9988 21.2587 20.9513 22.0338 21.8175C22.55 22.3825 23.9075 23.8762 23.9075 23.8762C23.0766 23.7497 22.2837 23.442 21.585 22.975C20.2919 22.1719 19.2607 21.0096 18.6175 19.63C18.3579 19.0545 18.2544 18.4207 18.3175 17.7925C18.389 17.4573 18.5328 17.1417 18.7387 16.8678C18.9447 16.5938 19.2079 16.3681 19.51 16.2063C19.852 16.0232 20.2304 15.9185 20.6179 15.8999C21.0053 15.8813 21.3921 15.9492 21.75 16.0987C22.7825 16.49 23.4062 17.6175 23.8138 18.3638C23.855 18.43 23.8913 18.5012 23.9325 18.5637C24.5775 19.6663 25.3325 20.7013 26.1875 21.6513C27.8614 23.4554 29.9173 24.8626 32.205 25.77L34.9513 26.6912L32.1325 27.2675C30.5546 27.5616 28.949 27.6807 27.345 27.6225C24.0675 27.4725 21.8125 26.9025 19.5775 25.6612C17.6627 24.53 16.1296 22.8524 15.175 20.8438C14.7714 19.9077 14.5863 18.892 14.6337 17.8737C14.6506 16.729 14.973 15.6096 15.5675 14.6313C16.2638 13.505 17.6837 12.1512 20.45 12.0575C21.5287 12.0875 22.5875 12.3575 23.5462 12.8512C25.1249 13.7193 26.4147 15.0308 27.2563 16.6237C28.2663 18.4718 29.7455 20.021 31.5451 21.1152C33.3446 22.2094 35.4007 22.8099 37.5062 22.8563C38.7812 22.8563 40.0563 22.7625 41.3187 22.5737C40.2461 23.5579 38.8968 24.1884 37.4538 24.38C35.1348 24.3151 32.8704 23.6612 30.8737 22.48C28.8275 21.2407 27.1297 19.5017 25.94 17.4263C25.2478 16.0944 24.1828 14.9929 22.875 14.2562C22.1292 13.8681 21.3054 13.6532 20.465 13.6275C18.8025 13.6738 17.59 14.2862 16.8525 15.45C16.454 16.169 16.2229 16.9686 16.1764 17.7893C16.1299 18.61 16.2691 19.4306 16.5837 20.19ZM31.6175 4.1825C32.1663 4.5 32.6925 4.8525 33.1962 5.23875C33.6112 5.53625 33.9762 5.9 34.275 6.31375C34.4052 6.49374 34.4956 6.69936 34.5402 6.91696C34.5848 7.13455 34.5826 7.35915 34.5338 7.57585C34.485 7.79254 34.3906 7.99637 34.257 8.1738C34.1234 8.35124 33.9535 8.49822 33.7588 8.605C33.1231 7.80864 32.4336 7.05688 31.695 6.355C30.7715 5.4867 29.7284 4.75511 28.5975 4.1825H31.6175ZM12.445 4.1825C11.3909 4.59354 10.4512 5.25206 9.705 6.1025C9.67705 5.43434 9.54461 4.77467 9.3125 4.1475L12.445 4.1825ZM5.515 7.23C5.5106 6.69308 5.64629 6.1643 5.90868 5.69584C6.17108 5.22739 6.55111 4.83546 7.01125 4.55875C7.3525 5.5325 7.43375 6.57625 7.24875 7.59C7.02491 8.74431 6.6788 9.87149 6.21625 10.9525C5.96375 11.6 5.70125 12.2325 5.525 12.8562L5.515 7.23125V7.23ZM8.4975 35.6675C7.68866 35.6672 6.91294 35.3462 6.3403 34.775C5.76766 34.2038 5.44482 33.4288 5.4425 32.62V31.0763C6.475 32.77 7.8375 34.1025 10.005 35.6625L8.4975 35.6675ZM13.7612 35.6675C12.8645 35.127 12.0028 34.5304 11.1813 33.8812C8.83363 32.0526 6.88422 29.7637 5.4525 27.155V23.2113C7.3625 29.29 12.09 33.475 17.09 35.6675H13.7612ZM41.7675 35.6675C41.0155 35.1893 40.2056 34.8087 39.3575 34.535C37.4025 34.0513 35.6112 34.4475 33.5325 34.86C30.8381 35.4553 28.0752 35.6803 25.32 35.5288C22.9486 35.3453 20.6181 34.8072 18.4062 33.9325C16.3 33.1073 14.3724 31.8842 12.7288 30.33C11.2366 28.9388 9.96304 27.3303 8.95125 25.5588C7.40375 22.81 6.65125 20.1187 6.75875 17.555C6.825 16.0763 7.12625 14.6175 7.65125 13.2312C8.21773 11.7819 8.98935 10.4213 9.9425 9.19125C11.9555 6.55794 14.9196 4.81747 18.2 4.3425C18.7788 4.255 19.3625 4.2025 19.95 4.1825H20.9813C23.0938 4.235 25.17 4.75125 27.06 5.69625C28.4973 6.44313 29.7988 7.42643 30.91 8.605C32.0913 9.8525 33.1225 11.2338 33.98 12.7225C34.0475 12.845 34.12 12.96 34.1875 13.0725C34.3025 12.435 34.5175 11.8212 34.8213 11.25C35.0387 10.8225 35.2913 10.4212 35.5338 10.025C36.1787 8.995 36.8188 8.15125 36.7262 7.08125C36.6571 6.46004 36.4263 5.86783 36.0567 5.36378C35.6871 4.85972 35.1917 4.46145 34.62 4.20875H37.125C37.6426 4.5615 38.0493 5.05402 38.2978 5.62894C38.5463 6.20387 38.6264 6.83757 38.5288 7.45625C38.3737 8.6975 37.46 9.85 36.8512 10.8325C36.6138 11.22 36.3862 11.585 36.1963 11.96C35.7247 12.8468 35.5234 13.8525 35.6175 14.8525C35.7042 15.561 35.8599 16.2593 36.0825 16.9375C35.515 16.7405 34.9897 16.4386 34.5338 16.0475C33.7882 15.2994 33.1538 14.4483 32.65 13.52C30.86 10.4575 28.7437 8.29 26.355 7.065C24.5216 6.16462 22.5038 5.70328 20.4613 5.7175C19.7825 5.7175 19.105 5.7675 18.4325 5.86625C15.5626 6.28883 12.9706 7.81396 11.2075 10.1175C10.351 11.2379 9.65667 12.4733 9.145 13.7875C8.67579 15.0203 8.40574 16.3199 8.345 17.6375C8.245 19.9075 8.9175 22.3213 10.3312 24.8125C12.2694 28.2764 15.3205 30.9843 18.99 32.4975C23.5312 34.2575 28.0938 34.4575 33.5275 33.26C36.0612 32.7025 38.2863 32.4862 40.6125 33.26C42.1213 33.8825 43.5487 34.685 44.865 35.6475L41.7688 35.6675H41.7675ZM47.48 35.39C45.37 33.515 43.1512 32.1575 41.345 31.6575L39.4712 31.1438C40.469 30.7343 41.4289 30.2382 42.34 29.6613C42.34 29.6613 43.8888 29.8113 44.6775 29.79C44.2477 30.1213 43.7962 30.4236 43.3262 30.695C45.4344 31.7038 47.3763 33.0282 49.085 34.6225C48.5975 34.9688 48.0563 35.2275 47.48 35.39ZM53.4675 30.5262C53.1675 30.3764 52.8792 30.2042 52.605 30.0113C51.8406 30.3638 51.0418 30.636 50.2212 30.8237C50.775 31.2425 51.3638 31.615 51.98 31.9362L50.8612 33.0837C49.7383 32.4402 48.6881 31.6775 47.7287 30.8088C47.3558 30.4617 46.9516 30.15 46.5212 29.8775C46.5212 29.8775 47.3925 29.78 48.3112 29.61C49.6442 29.3423 50.9401 28.9155 52.1712 28.3387L52.5838 28.1225L53.1 28.5188C53.5625 28.8838 54.0875 29.1625 54.6488 29.3425C54.2513 29.78 53.8075 30.1912 53.4662 30.5262H53.4675ZM58.5138 24.1175C58.3024 25.1403 57.8088 26.0834 57.0888 26.84H57.0588L56.8725 27.0725L56.135 27.8288C55.4819 27.7173 54.8554 27.485 54.2875 27.1437C54.8537 26.7137 55.365 26.2158 55.81 25.6612L56.285 24.88C56.285 24.88 57.8325 24.6175 58.565 23.85C58.5763 23.8188 58.4988 24.1175 58.5138 24.1175ZM58.6587 7.915C57.6047 6.87023 56.2518 6.17915 54.7875 5.9375C52.946 5.59925 51.0571 5.61113 49.22 5.9725C48.5075 6.105 47.815 6.3225 47.155 6.6225L46.7637 6.8175L46.3812 6.6175C45.1089 5.86121 43.6106 5.57792 42.15 5.8175C42.2712 6.42 42.3075 7.035 42.2575 7.64625C43.4774 7.77166 44.6638 8.12038 45.7575 8.675C46.1962 8.93625 46.6175 9.22625 47.0163 9.545C47.7381 8.8476 48.6262 8.34632 49.5962 8.08875C50.7092 7.74471 51.8808 7.6324 53.0387 7.75875C54.332 7.87386 55.5749 8.31512 56.6512 9.04125C57.2544 9.483 57.7477 10.0577 58.093 10.7208C58.4383 11.3839 58.6264 12.1176 58.6425 12.865C58.7434 14.0331 58.5447 15.2076 58.065 16.2775C57.1925 18.12 55.1388 19.4025 52.6463 19.695C52.0312 21.2554 51.1474 22.696 50.035 23.9512C49.91 24.1162 49.3438 24.8425 48.57 25.6862C48.7862 25.6237 49.0137 25.5625 49.245 25.48C51.1996 24.9016 52.8697 23.6177 53.9313 21.8775L54.1175 21.5525L54.4938 21.5025C56.0811 21.2128 57.5468 20.4585 58.705 19.335V21.3575C58.3925 21.5825 58.0675 21.7863 57.73 21.97C56.8975 22.425 56.005 22.7575 55.0763 22.9575C53.7928 24.8676 51.89 26.2767 49.6888 26.9475C48.6637 27.285 47.5987 27.49 46.5212 27.56L44.5238 27.6887C45.62 26.8387 46.6025 25.8512 47.445 24.75C48.1813 23.815 48.87 22.845 49.5075 21.8412C50.1075 20.9375 50.615 19.975 51.02 18.9688L51.5363 17.6462C51.8563 17.7512 52.1825 17.835 52.5112 17.8988C53.3492 17.9756 54.1909 17.7988 54.9271 17.3914C55.6633 16.9839 56.2601 16.3646 56.64 15.6138C57.0077 14.7796 57.1553 13.865 57.0687 12.9575C56.935 10.8162 55.5938 9.6475 52.8263 9.2825C51.3138 9.0825 48.6512 9.60125 47.795 11.0688L47.2788 11.98L46.5725 11.2025C46.1112 10.7362 45.5905 10.3327 45.0238 10.0025C43.9792 9.48421 42.8385 9.18839 41.6738 9.13375C41.2146 9.12942 40.7559 9.1637 40.3025 9.23625L40.565 8.2375C40.7429 7.30254 40.6407 6.33585 40.2712 5.45875L39.8737 4.68625C40.808 4.33804 41.798 4.16351 42.795 4.17125C44.1952 4.1343 45.5829 4.44344 46.835 5.07125C48.1837 4.55502 49.6053 4.25466 51.0475 4.18125H53.0075C53.6987 4.22625 54.3887 4.30625 55.0713 4.42375C56.1662 4.6175 57.2163 5.01125 58.1675 5.58625C58.4825 6.0775 58.6488 6.6475 58.6475 7.22875L58.6587 7.91375V7.915Z" fill="url(#paint0_linear_320_10714)"/>
<path opacity="0.8" fill-rule="evenodd" clip-rule="evenodd" d="M69.0948 21.7987H71.0886V31.1637H69.0948V21.7987ZM70.0398 17.7112C70.7411 17.715 71.3086 18.2688 71.3086 18.95C71.3078 19.1992 71.2322 19.4424 71.0916 19.6481C70.951 19.8539 70.7518 20.0126 70.5198 20.1038C70.0411 20.2975 69.4886 20.1912 69.1223 19.8337C68.944 19.6616 68.8224 19.4393 68.7738 19.1963C68.7251 18.9533 68.7516 18.7013 68.8498 18.4738C69.0498 18.0087 69.5211 17.7075 70.0398 17.7112ZM80.0023 15.945H77.8461C77.8461 10.945 75.4548 9.0775 74.5086 8.53875C73.5636 9.0825 71.1773 10.9512 71.1773 15.945H69.0211C69.0211 8.33125 73.9298 6.4575 74.1386 6.3825L74.5086 6.25L74.8848 6.3825C75.0936 6.4575 80.0023 8.31125 80.0023 15.945ZM104.037 15.945H101.875C101.875 10.945 99.4836 9.0775 98.5436 8.53875C97.5986 9.0825 95.2123 10.9512 95.2123 15.945H93.0498C93.0498 8.33125 97.9586 6.4575 98.1736 6.3825L98.5436 6.25L98.9186 6.3825C99.1436 6.4575 104.037 8.31125 104.037 15.945ZM116.25 31.15H114.094C114.094 26.155 111.702 24.2875 110.756 23.7438C109.812 24.2863 107.426 26.155 107.426 31.15H105.269C105.269 23.535 110.177 21.6675 110.386 21.5912L110.757 21.4587L111.132 21.5912C111.341 21.6675 116.25 23.52 116.25 31.15ZM85.9548 21.6125C86.1636 21.6875 91.0723 23.535 91.0561 31.17H88.8936C88.8936 26.175 86.5023 24.3075 85.5636 23.7638C84.6186 24.3075 82.2323 26.1763 82.2323 31.17H80.0748C80.0386 29.3425 80.3948 27.5275 81.1198 25.84C80.6207 24.9908 79.9195 24.278 79.0786 23.765C78.1323 24.3125 75.7461 26.18 75.7461 31.17H73.5898C73.5898 23.535 78.4986 21.6875 78.7073 21.6112L79.0823 21.48L79.4536 21.6112C80.5872 22.0966 81.5765 22.8659 82.3261 23.845C83.0752 22.8639 84.0663 22.0942 85.2023 21.6112L85.5786 21.48L85.9536 21.6112L85.9548 21.6125ZM98.4761 30.6162C96.5909 30.5907 94.7101 30.8041 92.8786 31.2512L98.7311 23.8512H93.2648V21.7587H103.186L102.799 22.19L97.8648 28.5H98.1311C99.9236 28.4705 101.714 28.6407 103.469 29.0075C103.391 29.67 103.352 30.3363 103.352 31.0025V31.1238C101.749 30.7876 100.115 30.6175 98.4761 30.6162ZM112.72 13.6962C111.328 12.1171 109.714 10.7493 107.927 9.63625V15.945H105.932V6.3575L107.462 7.02625C109.884 8.32485 112.074 10.0161 113.942 12.0312V6.59H115.936V17.91C115.001 16.4064 113.924 14.9957 112.72 13.6975V13.6962ZM82.2123 13.5388C83.4061 13.9 84.6536 14.0637 85.9036 14.0262C86.5386 14.0137 87.1711 13.9613 87.7986 13.8688L81.1111 7.83875C82.3935 7.01092 83.8496 6.48993 85.3661 6.31625H85.5961L86.0498 6.275H86.8961C88.1398 6.2875 89.3798 6.43 90.5923 6.70125L90.3311 7.7175L90.0711 8.7325C88.7982 8.44963 87.4939 8.33365 86.1911 8.3875C85.7938 8.41237 85.3981 8.45953 85.0061 8.52875L91.6786 14.5387C90.5509 15.3561 89.2303 15.867 87.8461 16.0213C87.2223 16.1013 86.5961 16.1487 85.9661 16.1637H85.6423C84.2241 16.1657 82.8146 15.9429 81.4661 15.5037L82.2123 13.5388Z" fill="url(#paint1_linear_320_10714)"/>
<defs>
<linearGradient id="paint0_linear_320_10714" x1="3.75" y1="2.5" x2="48.829" y2="48.6108" gradientUnits="userSpaceOnUse">
<stop stop-color="#DA34AE"/>
<stop offset="1" stop-color="#6823E1"/>
</linearGradient>
<linearGradient id="paint1_linear_320_10714" x1="68.75" y1="6.25" x2="100.582" y2="44.3437" gradientUnits="userSpaceOnUse">
<stop stop-color="#DA34AE"/>
<stop offset="1" stop-color="#6823E1"/>
</linearGradient>
</defs>
</svg>
