<svg width="24" height="24" fill="none" xmlns="http://www.w3.org/2000/svg"><g clip-path="url(#a)"><path d="M24 0H0v24h24V0Z" fill="#D80027"/><path d="M24 0H0v8h24V0Z" fill="#338AF3"/><path d="M24 16H0v8h24v-8Z" fill="#6DA544"/><path d="M12.25 15.25a3.25 3.25 0 1 1 1.546-6.11 4 4 0 1 0 0 5.719c-.46.25-.986.391-1.546.391Z" fill="#F0F0F0"/><path d="m14.75 9.75.43 1.21 1.161-.551-.552 1.16L17 12l-1.21.43.551 1.161-1.16-.552-.431 1.211-.43-1.21-1.161.551.552-1.16L12.5 12l1.21-.43-.551-1.161 1.16.552.431-1.211Z" fill="#F0F0F0"/></g><defs><clipPath id="a"><path d="M0 12C0 5.373 5.373 0 12 0s12 5.373 12 12-5.373 12-12 12S0 18.627 0 12Z" fill="#fff"/></clipPath></defs></svg>