<svg width="64" height="64" fill="none" xmlns="http://www.w3.org/2000/svg"><g opacity=".4" fill="#000"><path d="M33.869 40.918h15.02c.563 0 .939-.375.939-.938v-8.45c0-.563-.376-.938-.939-.938h-15.02c-.564 0-.94.376-.94.939v8.449c0 .563.376.938.94.938Zm.938-8.449H47.95v6.572H34.807v-6.572ZM8.522 28.714h7.51c.564 0 .939-.375.939-.938 0-.564-.375-.94-.939-.94h-7.51c-.563 0-.939.376-.939.94 0 .563.376.938.939.938ZM19.787 28.714h7.51c.563 0 .939-.375.939-.938 0-.564-.376-.94-.939-.94h-7.51c-.563 0-.939.376-.939.94 0 .563.376.938.939.938ZM8.522 32.47h12.204c.563 0 .939-.376.939-.94 0-.563-.376-.938-.939-.938H8.522c-.563 0-.939.376-.939.939s.376.938.939.938ZM27.297 30.592h-2.816c-.563 0-.939.375-.939.939 0 .563.376.938.939.938h2.816c.563 0 .939-.375.939-.939 0-.563-.376-.938-.939-.938Z"/><path d="M59.31 18.951c-.658-.845-1.503-1.314-2.535-1.408l-2.253-.273v-4.515A3.766 3.766 0 0 0 50.767 9H7.583a3.766 3.766 0 0 0-3.755 3.755V42.796a3.77 3.77 0 0 0 2.69 3.6 3.654 3.654 0 0 0 3.318 3.722L53.208 55h.375c1.878 0 3.567-1.408 3.755-3.192l2.816-30.134c.094-.94-.187-1.972-.845-2.723Zm-53.604-3.38h46.938v5.633H5.706v-5.633Zm1.877-4.693h43.184c1.032 0 1.877.845 1.877 1.877v.939H5.706v-.939c0-1.033.844-1.877 1.877-1.877ZM5.706 42.796V23.082h46.938v19.714a1.883 1.883 0 0 1-1.877 1.877H7.583a1.883 1.883 0 0 1-1.877-1.877Zm52.57-21.498L55.46 51.433c-.093 1.032-1.032 1.783-2.065 1.69L10.118 48.24c-.939-.094-1.596-.845-1.69-1.69h42.339a3.766 3.766 0 0 0 3.755-3.755V19.045l2.159.188c.47 0 .939.281 1.22.657.282.375.47.939.376 1.408Z"/></g></svg>