<svg width="14" height="18" viewBox="0 0 14 18" fill="none" xmlns="http://www.w3.org/2000/svg">
<path fill-rule="evenodd" clip-rule="evenodd" d="M0.541626 3.16667C0.541626 1.90066 1.56728 0.875 2.83329 0.875H8.80996C9.41757 0.875 10.0007 1.11681 10.4302 1.54639L12.7869 3.90306C13.2165 4.33264 13.4583 4.91572 13.4583 5.52333V14.8333C13.4583 16.0993 12.4326 17.125 11.1666 17.125H2.83329C1.56728 17.125 0.541626 16.0993 0.541626 14.8333V3.16667ZM12.09 5.04167C12.0414 4.9486 11.9786 4.86254 11.903 4.78694L9.54635 2.43027C9.47075 2.35467 9.3847 2.29188 9.29163 2.24329V4.83333C9.29163 4.94816 9.38514 5.04167 9.49996 5.04167H12.09ZM8.04163 2.125V4.83333C8.04163 5.63851 8.69478 6.29167 9.49996 6.29167H12.2083V14.8333C12.2083 15.409 11.7423 15.875 11.1666 15.875H2.83329C2.25764 15.875 1.79163 15.409 1.79163 14.8333V3.16667C1.79163 2.59101 2.25764 2.125 2.83329 2.125H8.04163ZM6.16663 7.54167C6.5118 7.54167 6.79163 7.82149 6.79163 8.16667V11.6578L7.39135 11.0581C7.63543 10.814 8.03116 10.814 8.27524 11.0581C8.51931 11.3021 8.51931 11.6979 8.27524 11.9419L6.60857 13.6086C6.36449 13.8527 5.96876 13.8527 5.72468 13.6086L4.05802 11.9419C3.81394 11.6979 3.81394 11.3021 4.05802 11.0581C4.3021 10.814 4.69782 10.814 4.9419 11.0581L5.54163 11.6578V8.16667C5.54163 7.82149 5.82145 7.54167 6.16663 7.54167Z" fill="white"/>
</svg>
