<svg width="119" height="108" viewBox="0 0 119 108" fill="none" xmlns="http://www.w3.org/2000/svg">
<path fill-rule="evenodd" clip-rule="evenodd" d="M56.7143 0.137875C49.6423 1.43545 44.233 6.29592 42.2954 13.0937C41.6211 15.4595 41.571 19.8492 42.1922 22.1218C44.016 28.7919 49.3162 33.8217 55.9773 35.204C61.0813 36.263 66.5039 34.9474 70.6125 31.6528C73.4851 29.349 75.8284 25.7458 76.8106 22.1218C77.4279 19.8439 77.3762 15.4517 76.7039 13.0937C74.9637 6.98854 70.3026 2.30706 64.2654 0.601146C62.3848 0.0696647 58.4138 -0.173872 56.7143 0.137875ZM62.998 5.56759C65.1114 6.19498 66.8761 7.24856 68.4499 8.82263C72.5963 12.9687 73.3773 19.273 70.3667 24.2962C66.7651 30.3055 59.0144 32.2277 52.9363 28.6193C49.171 26.3839 46.8865 22.3543 46.8522 17.8873C46.8247 14.3098 48.0387 11.3331 50.5494 8.82263C52.5378 6.83404 55.151 5.53166 58.0119 5.10295C59.1026 4.93952 61.6966 5.18123 62.998 5.56759ZM21.8474 20.5235C19.3477 21.0218 17.0826 22.2443 15.2345 24.0923C10.2257 29.1011 10.2179 36.9058 15.2167 41.939C17.7381 44.4777 20.6189 45.6894 24.1454 45.6947C28.2984 45.7009 31.8773 43.9334 34.3369 40.6618C35.9373 38.5329 36.6423 36.5169 36.7785 33.6807C36.9701 29.6898 35.8739 26.8571 33.0467 24.0371C30.0741 21.0719 25.8087 19.7336 21.8474 20.5235ZM92.0457 20.7542C87.2812 22.0023 83.7471 25.7041 82.7281 30.514C82.3124 32.4758 82.3099 33.7292 82.7176 35.6526C83.7244 40.4027 87.6487 44.371 92.4296 45.4729C94.279 45.8991 97.7192 45.6532 99.5888 44.9613C101.659 44.195 103.867 42.5651 105.173 40.8383C107.06 38.3446 107.788 36.1919 107.793 33.0993C107.798 29.4355 106.66 26.7028 104.026 24.0484C100.815 20.8137 96.4257 19.6068 92.0457 20.7542ZM27.1244 26.0374C28.6291 26.6002 30.167 28.0416 31.0418 29.7081C31.6086 30.7876 31.6855 31.1803 31.6864 32.994C31.6875 35.4226 31.2515 36.5965 29.7397 38.2368C25.6684 42.6534 18.3627 40.7253 16.8129 34.8252C15.9525 31.5493 17.6152 27.8832 20.6697 26.3205C22.7831 25.2393 24.76 25.1525 27.1244 26.0374ZM96.6258 25.5831C99.0099 26.0875 100.714 27.3597 101.843 29.4785C103.379 32.3603 102.973 35.6945 100.791 38.1214C97.5475 41.7289 91.8885 41.4211 88.9896 37.4794C88.0365 36.1834 87.6176 34.8105 87.6094 32.9558C87.5917 28.9404 90.8273 25.6217 95.0236 25.3514C95.2376 25.3375 95.9586 25.4418 96.6258 25.5831ZM55.6612 40.8983C53.0306 41.2302 49.9632 42.0141 47.499 42.9846C42.9411 44.7796 39.7078 46.9185 36.0664 50.548L33.5763 53.0299L32.0618 52.4238C29.3 51.3189 26.6018 50.9042 22.9918 51.0294C19.3101 51.1571 17.2055 51.6348 14.2668 53.01C6.63971 56.5791 1.57301 63.9186 0.9811 72.2548C0.868944 73.8364 0.916095 74.3548 1.2267 74.9557C2.00103 76.4531 4.11895 76.7744 5.25332 75.5668C5.69325 75.0987 5.83493 74.564 6.07435 72.4709C6.53854 68.4124 7.67841 65.544 10.0028 62.5856C12.0605 59.9662 15.3863 57.7693 18.9862 56.6514C21.4241 55.8942 26.0965 55.8798 28.5815 56.6216C29.5158 56.9006 30.3582 57.209 30.4534 57.3069C30.5486 57.4051 30.2325 58.3092 29.7511 59.3163C27.8692 63.2528 26.7628 67.4506 26.424 71.938C26.2951 73.6451 26.3356 74.1775 26.6437 74.8268C27.4407 76.5064 29.5815 76.8285 30.7463 75.4441C31.3433 74.7348 31.4619 74.1658 31.6837 70.9448C32.1861 63.6435 36.6194 55.9146 43.0045 51.2075C46.3578 48.7355 50.8847 46.8382 55.1169 46.1312C57.0748 45.8041 61.9245 45.8041 63.8825 46.1312C71.6077 47.4219 78.4465 51.8321 82.7526 58.3005C85.5519 62.5052 87.0502 66.9086 87.4022 71.9652C87.5876 74.6277 87.6382 74.8403 88.2386 75.467C89.5282 76.8129 91.5655 76.492 92.36 74.8179C92.6662 74.1722 92.712 73.6455 92.5909 72.158C92.205 67.4234 91.0578 63.0131 89.2617 59.3607C88.7589 58.3376 88.4309 57.417 88.5332 57.3147C88.6355 57.2124 89.4835 56.9016 90.4178 56.6237C91.7905 56.2158 92.6875 56.119 95.092 56.1197C98.6311 56.1208 100.12 56.4575 103.103 57.9311C108.766 60.7288 112.141 65.7129 112.917 72.4235C113.164 74.5597 113.306 75.0987 113.746 75.5673C114.88 76.7744 116.998 76.4528 117.773 74.9557C118.083 74.3548 118.13 73.8364 118.018 72.2548C117.426 63.9186 112.36 56.5791 104.733 53.01C101.844 51.6586 99.6812 51.1601 96.122 51.0262C92.5396 50.8911 89.9946 51.2695 87.1786 52.3554L85.4342 53.0283L82.8242 50.4409C77.8944 45.5537 72.586 42.7093 65.8241 41.3313C63.1734 40.7912 58.1934 40.579 55.6612 40.8983Z" fill="#A0AEC0"/>
<path d="M44.1222 69.6696L44.1222 69.6696C35.5934 78.1845 35.5934 91.998 44.1222 100.513C47.5863 103.971 51.7816 106.036 56.8561 106.759C57.3048 106.823 58.3762 106.861 59.5271 106.86C60.6757 106.859 61.7611 106.82 62.2337 106.754M44.1222 69.6696L62.3709 107.745M44.1222 69.6696C47.7216 66.0761 52.3483 63.8833 57.4407 63.3606L44.1222 69.6696ZM62.2337 106.754L62.3709 107.745M62.2337 106.754C62.2337 106.754 62.2337 106.754 62.2337 106.754L62.3709 107.745M62.2337 106.754C70.7419 105.575 77.5702 99.9263 80.2241 91.8937C80.9926 89.5677 81.2746 87.7579 81.2746 85.0913C81.2746 82.4245 80.9925 80.6143 80.224 78.289L81.1735 77.9752M62.3709 107.745C71.2504 106.515 78.3981 100.608 81.1736 92.2074C81.9781 89.7726 82.2746 87.8561 82.2746 85.0913C82.2746 82.3262 81.978 80.4094 81.1735 77.9752M81.1735 77.9752L80.224 78.289C77.5998 70.3478 70.8745 64.7111 62.5361 63.4754L62.536 63.4754C62.0595 63.4048 61.0527 63.3471 59.9897 63.3231C58.9265 63.2992 57.9188 63.3115 57.4407 63.3606L81.1735 77.9752ZM62.5698 65.0692L62.5699 65.0692C68.2472 65.9568 73.2301 69.1445 76.3904 73.9149L75.5567 74.4672L76.3904 73.9149C80.131 79.5616 80.7953 86.808 78.1357 93.0085C75.3339 99.5405 69.5447 104.02 62.4817 105.13L62.4816 105.13C61.7388 105.247 60.5904 105.298 59.494 105.297C58.3984 105.297 57.254 105.244 56.5202 105.126C47.6108 103.69 40.8886 96.9507 39.4973 88.0536C39.3796 87.3013 39.3269 86.1738 39.3269 85.0913C39.3269 84.0087 39.3796 82.8812 39.4973 82.1289C40.3942 76.3933 43.5151 71.4529 48.2681 68.2678C51.1017 66.3689 54.2206 65.2799 57.8576 64.8979L62.5698 65.0692ZM62.5698 65.0692C62.0722 64.9914 61.0839 64.9301 60.174 64.8964M62.5698 65.0692L60.174 64.8964M60.7418 94.0428L60.7418 94.0428C60.8434 93.8593 60.8539 93.8159 60.8592 93.7928C60.8686 93.7518 60.8799 93.6697 60.879 93.3842L60.7418 94.0428ZM60.7418 94.0428C60.5317 94.4224 60.2921 94.6092 60.011 94.7051C59.3289 94.9376 58.6508 94.6772 58.298 94.0399M60.7418 94.0428L58.298 94.0399M60.174 64.8964C59.2749 64.8631 58.3034 64.8511 57.8576 64.8979L60.174 64.8964ZM59.0706 92.0806C58.7846 92.1828 58.4135 92.498 58.2371 92.8277L59.0706 92.0806ZM59.0706 92.0806C59.6925 91.8587 60.4261 92.119 60.8044 92.8272C60.8328 92.8804 60.8442 92.9131 60.8537 92.964C60.8668 93.0335 60.8783 93.1508 60.879 93.3841L59.0706 92.0806ZM58.298 94.0399C58.198 93.859 58.1876 93.816 58.1823 93.793C58.1729 93.7516 58.1616 93.6689 58.1625 93.384M58.298 94.0399L58.1625 93.384M58.1625 93.384C58.1632 93.1504 58.1747 93.0333 58.1877 92.9641M58.1625 93.384L58.1877 92.9641M58.1877 92.9641C58.1971 92.9138 58.2084 92.8813 58.237 92.8278L58.1877 92.9641ZM59.1779 74.8625L59.1781 74.8624C59.2928 74.8018 59.4289 74.7708 59.5207 74.7708C59.7237 74.7708 60.0052 74.9031 60.1726 75.1408C60.1726 75.1408 60.1727 75.1409 60.1727 75.1409L60.259 75.2635L60.2846 81.0698C60.2941 83.1994 60.2934 84.7486 60.2819 85.7928C60.2762 86.3158 60.2678 86.7048 60.2571 86.9737C60.2517 87.1089 60.246 87.2049 60.2407 87.2684C60.2405 87.2706 60.2403 87.2728 60.2402 87.2748C60.2328 87.2905 60.2228 87.3099 60.2096 87.3325C60.1782 87.3865 60.1352 87.4481 60.0833 87.5103C59.98 87.6338 59.8853 87.708 59.839 87.7363C59.8294 87.7391 59.8085 87.7447 59.7743 87.7507C59.7063 87.7626 59.6178 87.7705 59.5207 87.7705C59.4236 87.7705 59.3352 87.7626 59.2672 87.7507C59.2329 87.7447 59.212 87.7391 59.2025 87.7363C59.1561 87.7081 59.0614 87.6338 58.9583 87.5103C58.9063 87.4482 58.8635 87.3867 58.8322 87.3328C58.8191 87.3104 58.8092 87.2911 58.8019 87.2755C58.8017 87.2733 58.8015 87.2711 58.8013 87.2687C58.796 87.2048 58.7903 87.1082 58.7849 86.9724C58.7742 86.7025 58.7659 86.3122 58.7601 85.7883C58.7486 84.7425 58.7478 83.1931 58.7571 81.0699L58.7825 75.2635L58.8688 75.1409C58.8843 75.1189 58.9366 75.0574 59.0199 74.9833C59.0578 74.9496 59.0944 74.9201 59.1261 74.897C59.1417 74.8856 59.1546 74.8769 59.1644 74.8707C59.1735 74.8649 59.178 74.8624 59.1779 74.8625Z" fill="#A0AEC0" stroke="#A0AEC0" stroke-width="2"/>
</svg>
