<svg width="117" height="64" viewBox="0 0 117 64" fill="none" xmlns="http://www.w3.org/2000/svg">
<path d="M85.9891 39.4846H81.8581V34.0658H85.8535C87.2094 34.0658 88.2369 34.2835 88.9066 34.7129C89.5592 35.1313 89.8764 35.7925 89.8764 36.7345C89.8764 38.585 88.6049 39.4846 85.9891 39.4846ZM81.8581 26.0507H84.9329C86.3608 26.0507 87.4321 26.211 88.1171 26.5272C88.7635 26.8261 89.0777 27.4236 89.0777 28.3539C89.0777 28.7863 88.9727 29.1821 88.7617 29.5368C88.4934 30.0314 88.1176 30.3569 87.6131 30.5321C87.0888 30.7139 86.3283 30.8062 85.3528 30.8062H81.8581V26.0507ZM90.7109 32.1536C92.4912 31.1958 93.3932 29.7417 93.3932 27.8258C93.3932 27.2284 93.2935 26.6535 93.0975 26.1166C92.9016 25.5798 92.6128 25.0825 92.2388 24.6385C91.867 24.1962 91.432 23.8252 90.947 23.5356C90.3786 23.1914 89.7278 22.9552 89.0126 22.8341C88.311 22.7157 87.4713 22.6556 86.5169 22.6556H80.0858C79.1809 22.6556 78.5098 22.868 78.0917 23.286C77.6732 23.7046 77.4609 24.3845 77.4609 25.3077V37.6625V40.2275V42.8796H80.0858H81.2344H86.1516C87.2025 42.8796 88.1355 42.8265 88.9242 42.7221C89.7217 42.6172 90.4395 42.4328 91.0606 42.1732C92.0563 41.736 92.8587 41.0492 93.4448 40.1326C94.0304 39.217 94.3276 38.1741 94.3276 37.0325C94.3276 34.687 93.1116 33.0476 90.7109 32.1536Z" fill="#2058BB"/>
<path d="M64.5307 27.3575L64.555 27.4242L64.5795 27.3575L67.2415 34.7788H64.555H61.8686L64.5307 27.3575ZM60.6853 38.1601H64.555H68.4249L70.1577 42.8467H74.7102L73.4457 39.6496C73.3833 39.4858 73.3154 39.3113 73.2366 39.1162L67.6615 24.9527C67.4553 24.4257 67.2313 23.9804 66.9954 23.6289C66.7511 23.2647 66.426 22.966 66.029 22.7411C65.629 22.5148 65.1332 22.3999 64.555 22.3998C63.9769 22.3999 63.4812 22.5148 63.0812 22.7411C62.6842 22.966 62.3591 23.2647 62.1148 23.6289C61.8788 23.9804 61.6548 24.4257 61.4487 24.9527L55.8736 39.1162C55.7948 39.3113 55.7269 39.4858 55.6644 39.6496L54.4 42.8467H58.9525L60.6853 38.1601Z" fill="#2058BB"/>
<path d="M105.522 39.4846H101.391V34.0658H105.386C106.742 34.0658 107.769 34.2835 108.439 34.7129C109.092 35.1313 109.409 35.7925 109.409 36.7345C109.409 38.585 108.138 39.4846 105.522 39.4846ZM101.391 26.0507H104.465C105.893 26.0507 106.965 26.211 107.65 26.5272C108.296 26.8261 108.61 27.4236 108.61 28.3539C108.61 28.7863 108.505 29.1821 108.294 29.5368C108.026 30.0314 107.65 30.3569 107.146 30.5321C106.622 30.7139 105.861 30.8062 104.885 30.8062H101.391V26.0507ZM110.244 32.1536C112.024 31.1958 112.926 29.7417 112.926 27.8258C112.926 27.2284 112.826 26.6535 112.63 26.1166C112.434 25.5798 112.145 25.0825 111.771 24.6385C111.399 24.1962 110.965 23.8252 110.48 23.5356C109.911 23.1914 109.26 22.9552 108.545 22.8341C107.844 22.7157 107.004 22.6556 106.049 22.6556H99.6184C98.7135 22.6556 98.0424 22.868 97.6242 23.286C97.2057 23.7046 96.9936 24.3845 96.9936 25.3077V37.6625V40.2275V42.8796H99.6184H100.767H105.684C106.735 42.8796 107.668 42.8265 108.457 42.7221C109.254 42.6172 109.972 42.4328 110.593 42.1732C111.589 41.736 112.391 41.0492 112.977 40.1326C113.563 39.217 113.86 38.1741 113.86 37.0325C113.86 34.687 112.644 33.0476 110.244 32.1536Z" fill="#2058BB"/>
<path d="M9.61183 31.9998C6.73926 27.3546 5.20172 21.8584 6.23507 16.2899C6.58758 14.3905 8.11167 12.9149 10.02 12.6144C11.7274 12.3453 12.9616 12.2106 15.38 12.4115C14.5085 13.8584 13.9929 15.3015 13.4507 16.704C12.2427 16.6601 11.0122 16.9018 10.6224 17.022C9.64089 20.6499 10.9075 26.8611 14.7339 31.9998H9.61183Z" fill="#2058BB"/>
<path d="M14.2944 20.6945C15.5478 15.3787 18.347 10.405 23.0152 7.19819C24.6077 6.1043 26.7287 6.13874 28.2907 7.27551C29.6882 8.29259 30.6562 9.07007 32.2243 10.9222C30.5849 11.329 29.1998 11.9849 27.8247 12.5933C27.0015 11.708 25.9606 11.0088 25.5999 10.8182C22.3406 12.6894 18.8442 17.9772 17.9163 24.3164L14.2944 20.6945Z" fill="#2058BB"/>
<path d="M25.5995 16.0116C30.2448 13.139 35.7409 11.6014 41.3094 12.6347C43.2089 12.9872 44.6844 14.5113 44.985 16.4197C45.254 18.127 45.3887 19.3612 45.1879 21.7798C43.741 20.9082 42.2979 20.3926 40.8954 19.8503C40.9392 18.6425 40.6977 17.4119 40.5773 17.0222C36.9494 16.0406 30.7381 17.3072 25.5995 21.1336V16.0116Z" fill="#2058BB"/>
<path d="M36.9052 20.6944C42.2211 21.9478 47.1946 24.7469 50.4014 29.4152C51.4954 31.0075 51.461 33.1286 50.3242 34.6907C49.3071 36.0882 48.5297 37.0561 46.6775 38.6243C46.2706 36.9848 45.6149 35.5998 45.0065 34.2247C45.8917 33.4015 46.5909 32.3606 46.7816 31.9999C44.9102 28.7405 39.6225 25.2442 33.2833 24.3163L36.9052 20.6944Z" fill="#2058BB"/>
<path d="M41.5882 31.9995C44.4608 36.6446 45.9983 42.1408 44.965 47.7094C44.6125 49.6089 43.0884 51.0843 41.18 51.385C39.4726 51.6539 38.2384 51.7888 35.82 51.5878C36.6914 50.141 37.207 48.6979 37.7494 47.2953C38.9573 47.3392 40.1879 47.0975 40.5776 46.9775C41.559 43.3494 40.2926 37.1382 36.466 31.9995H41.5882Z" fill="#2058BB"/>
<path d="M36.9055 43.3052C35.652 48.621 32.8529 53.5946 28.1846 56.8014C26.5923 57.8954 24.4712 57.861 22.9092 56.7242C21.5117 55.7071 20.5438 54.9296 18.9756 53.0775C20.6151 52.6706 22 52.0148 23.3751 51.4064C24.1984 52.2916 25.2393 52.9908 25.6 53.1815C28.8593 51.3102 32.3557 46.0225 33.2836 39.6833L36.9055 43.3052Z" fill="#2058BB"/>
<path d="M25.5998 47.9881C20.9546 50.8607 15.4585 52.3982 9.88999 51.365C7.99047 51.0125 6.51501 49.4884 6.21434 47.58C5.94541 45.8726 5.8105 44.6383 6.01146 42.2199C7.4585 43.0914 8.90144 43.607 10.3039 44.1492C10.2602 45.3572 10.5018 46.5878 10.622 46.9775C14.2499 47.959 20.4611 46.6925 25.5998 42.8659V47.9881Z" fill="#2058BB"/>
<path d="M14.2947 43.3054C8.97884 42.052 4.00526 39.2529 0.79835 34.5846C-0.295538 32.9923 -0.261106 30.8711 0.875791 29.3091C1.89275 27.9116 2.67022 26.9437 4.52251 25.3756C4.9293 27.015 5.58504 28.4001 6.19343 29.7752C5.30818 30.5983 4.60904 31.6392 4.41832 31.9999C6.28955 35.2593 11.5774 38.7557 17.9166 39.6835L14.2947 43.3054Z" fill="#2058BB"/>
</svg>
