<svg width="18" height="18" fill="none" xmlns="http://www.w3.org/2000/svg"><path fill-rule="evenodd" clip-rule="evenodd" d="M14.314 1.75c.785 0 1.407.627 1.407 1.385v11.73c0 .76-.627 1.389-1.413 1.385l-4.169-.019a.75.75 0 0 0-.006 1.5l4.167.019c1.604.008 2.92-1.28 2.92-2.885V3.135c0-1.6-1.307-2.885-2.906-2.885H10a.75.75 0 1 0 0 1.5h4.314ZM5.53 4.47a.75.75 0 0 0-1.06 0l-4 4a.75.75 0 0 0 0 1.06l4 4a.75.75 0 0 0 1.06-1.06L2.81 9.75h8.325a.75.75 0 1 0 0-1.5H2.81l2.72-2.72a.75.75 0 0 0 0-1.06Z" fill="red"/></svg>