<svg width="145" height="44" viewBox="0 0 145 44" fill="none" xmlns="http://www.w3.org/2000/svg">
<path fill-rule="evenodd" clip-rule="evenodd" d="M12.3162 12.2845C13.3962 7.71619 15.808 3.44192 19.8302 0.686093C21.2023 -0.253965 23.0299 -0.224375 24.3757 0.752535C25.5799 1.62659 26.4139 2.29473 27.765 3.88643C26.5023 4.19891 25.4148 4.68242 24.352 5.15494L24.3518 5.15502L24.3516 5.15511C24.2255 5.21115 24.0998 5.26705 23.9742 5.32248C23.2649 4.56172 22.3681 3.96079 22.0573 3.797C19.249 5.40509 16.2364 9.9493 15.4369 15.397L12.3162 12.2845ZM8.28169 21.9999C5.80661 18.008 4.48184 13.2847 5.37219 8.49931C5.67592 6.86702 6.98912 5.59894 8.6334 5.34066C10.1045 5.10945 11.1679 4.99361 13.2517 5.16631C12.5806 6.27753 12.1544 7.38612 11.738 8.46953C11.6884 8.59844 11.639 8.727 11.5893 8.85516C10.5485 8.81743 9.48823 9.02511 9.15241 9.1284C8.30672 12.2461 9.39802 17.5839 12.695 21.9999H8.28169ZM35.593 5.35816C30.7951 4.47013 26.0595 5.79156 22.0571 8.26018V12.6619C26.4846 9.3736 31.8364 8.28515 34.9623 9.12863C35.0659 9.46358 35.2741 10.5211 35.2363 11.5591C35.3651 11.6088 35.4943 11.6582 35.6239 11.7077L35.6241 11.7078C36.71 12.1231 37.8211 12.5481 38.9348 13.2172C39.1079 11.1388 38.9917 10.0781 38.76 8.61086C38.501 6.97087 37.2297 5.6611 35.593 5.35816ZM31.7983 12.2843C36.3786 13.3614 40.6639 15.7669 43.4269 19.7787C44.3696 21.1471 44.3399 22.9699 43.3604 24.3123C42.4841 25.5133 41.8142 26.3451 40.2183 27.6927C39.9049 26.4331 39.42 25.3482 38.9462 24.2879C38.8901 24.1623 38.8341 24.037 38.7785 23.9118C39.5413 23.2044 40.1437 22.3099 40.308 21.9999C38.6956 19.1989 34.1396 16.1942 28.6776 15.3968L31.7983 12.2843ZM38.7429 35.5002C39.6332 30.7147 38.3084 25.9914 35.8334 21.9995H31.42C34.717 26.4156 35.8082 31.7534 34.9626 34.8712C34.6268 34.9744 33.5665 35.182 32.5257 35.1443C32.4759 35.2727 32.4264 35.4016 32.3768 35.5307C31.9603 36.614 31.5342 37.7223 30.8634 38.8332C32.9471 39.006 34.0105 38.89 35.4817 38.6589C37.1259 38.4005 38.4391 37.1326 38.7429 35.5002ZM31.7984 31.7155C30.7184 36.2838 28.3066 40.558 24.2843 43.3138C22.9124 44.254 21.0848 44.2244 19.7389 43.2475C18.5348 42.3734 17.7008 41.7053 16.3497 40.1136C17.6125 39.801 18.7001 39.3175 19.763 38.8449L19.7646 38.8442C19.8901 38.7884 20.0153 38.7327 20.1404 38.6775C20.8498 39.4382 21.7466 40.0391 22.0574 40.203C24.8657 38.5948 27.8783 34.0507 28.6777 28.603L31.7984 31.7155ZM8.52139 38.6419C13.3193 39.5298 18.0549 38.2085 22.0573 35.7398V31.338C17.6297 34.6264 12.278 35.7149 9.15212 34.8714C9.04856 34.5364 8.84034 33.4789 8.87806 32.4408C8.75109 32.3919 8.62375 32.3432 8.49605 32.2943L8.49415 32.2936L8.4926 32.293L8.49172 32.2927C7.40539 31.8773 6.29389 31.4522 5.17956 30.7828C5.00641 32.8612 5.12265 33.9219 5.35437 35.3892C5.61343 37.0292 6.88472 38.3389 8.52139 38.6419ZM12.3166 31.7156C7.73635 30.6385 3.45102 28.233 0.687875 24.2212C-0.254642 22.8528 -0.224974 21.0299 0.7546 19.6875C1.63083 18.4865 2.30072 17.6547 3.89669 16.3071C4.21007 17.5668 4.69494 18.6518 5.1688 19.7121C5.22492 19.8377 5.28088 19.9629 5.33639 20.088C4.57364 20.7954 3.97125 21.69 3.80692 21.9999C5.41921 24.801 9.9753 27.8056 15.4373 28.603L12.3166 31.7156ZM60.588 6.07489L60.5689 6.02256L58.4745 11.846H62.7016L60.6073 6.02256L60.588 6.07489ZM63.6326 14.4993H57.5436L56.1802 18.1769H52.5986L53.5933 15.6681C53.6425 15.5396 53.696 15.4027 53.7579 15.2496L58.1442 4.13546C58.3063 3.72195 58.4825 3.37251 58.6682 3.0967C58.8604 2.81094 59.1161 2.57651 59.4285 2.40004C59.7432 2.22246 60.1332 2.13236 60.588 2.13226C61.0429 2.13236 61.4329 2.22246 61.7476 2.40004C62.06 2.57651 62.3158 2.81094 62.508 3.0967C62.6936 3.37251 62.8698 3.72195 63.032 4.13546L67.4183 15.2496C67.4802 15.4027 67.5337 15.5396 67.5827 15.6681L68.5776 18.1769H64.996L63.6326 14.4993ZM74.2009 15.5387H77.451C79.5089 15.5387 80.5093 14.8328 80.5093 13.3807C80.5093 12.6415 80.2598 12.1226 79.7463 11.7943C79.2194 11.4574 78.4111 11.2866 77.3443 11.2866H74.2009V15.5387ZM76.62 4.99713H74.2009V8.72873H76.9503C77.7178 8.72873 78.3162 8.65631 78.7287 8.51369C79.1256 8.37618 79.4212 8.12076 79.6323 7.73265C79.7984 7.45433 79.8809 7.14376 79.8809 6.80447C79.8809 6.07447 79.6337 5.60561 79.1252 5.37108C78.5863 5.12288 77.7434 4.99713 76.62 4.99713ZM83.2762 6.39005C83.2762 7.89346 82.5665 9.03447 81.1658 9.78608C83.0546 10.4876 84.0113 11.774 84.0113 13.6145C84.0113 14.5103 83.7775 15.3287 83.3168 16.0472C82.8556 16.7665 82.2243 17.3053 81.4409 17.6484C80.9523 17.8521 80.3876 17.9969 79.7602 18.0791C79.1397 18.1611 78.4056 18.2028 77.5788 18.2028H70.7414V4.41407C70.7414 3.68969 70.9084 3.15614 71.2377 2.8277C71.5666 2.49966 72.0946 2.33302 72.8066 2.33302H77.8663C78.6171 2.33302 79.2777 2.38013 79.8297 2.47304C80.3924 2.56806 80.9044 2.75347 81.3516 3.02356C81.7332 3.25076 82.0754 3.54194 82.3679 3.88896C82.6622 4.23739 82.8894 4.62761 83.0435 5.04886C83.1977 5.47011 83.2762 5.92129 83.2762 6.39005ZM92.8185 15.5387H89.5684V11.2866H92.7118C93.7786 11.2866 94.5869 11.4574 95.1139 11.7943C95.6273 12.1226 95.8768 12.6415 95.8768 13.3807C95.8768 14.8328 94.8765 15.5387 92.8185 15.5387ZM89.5684 4.99713H91.9875C93.1109 4.99713 93.9537 5.12288 94.4927 5.37108C95.0012 5.60561 95.2484 6.07447 95.2484 6.80447C95.2484 7.14376 95.1658 7.45433 94.9999 7.73265C94.7888 8.12076 94.4931 8.37618 94.0961 8.51369C93.6838 8.65631 93.0853 8.72873 92.3179 8.72873H89.5684V4.99713ZM96.5334 9.78608C97.934 9.03447 98.6436 7.89346 98.6436 6.39005C98.6436 5.92129 98.5653 5.47011 98.4111 5.04886C98.2568 4.62761 98.0296 4.23739 97.7355 3.88896C97.4428 3.54194 97.1006 3.25076 96.7191 3.02356C96.2719 2.75347 95.76 2.56806 95.1971 2.47304C94.6452 2.38013 93.9847 2.33302 93.2337 2.33302H88.174C87.4622 2.33302 86.9342 2.49966 86.6052 2.8277C86.2759 3.15614 86.109 3.68969 86.109 4.41407V18.2028H92.9464C93.7732 18.2028 94.5072 18.1611 95.1278 18.0791C95.7551 17.9969 96.3199 17.8521 96.8084 17.6484C97.5918 17.3053 98.2232 16.7665 98.6843 16.0472C99.1449 15.3287 99.3788 14.5103 99.3788 13.6145C99.3788 11.774 98.4221 10.4876 96.5334 9.78608ZM54.1053 27.0614V32.6966H59.29C59.8956 32.6966 60.42 32.6303 60.8631 32.4977C61.3062 32.3504 61.6755 32.1589 61.9709 31.9232C62.2664 31.6727 62.4879 31.3854 62.6357 31.0613C62.7834 30.7372 62.8572 30.391 62.8572 30.0226C62.8572 28.0484 61.6681 27.0614 59.29 27.0614H54.1053ZM52.5986 41.5584V25.7796H59.29C59.9547 25.7796 60.5898 25.8459 61.1955 25.9785C61.8158 26.0964 62.355 26.31 62.8129 26.6194C63.2856 26.914 63.6623 27.3118 63.9429 27.8127C64.2236 28.2989 64.3639 28.9103 64.3639 29.6469C64.3639 30.0595 64.2974 30.4646 64.1645 30.8624C64.0315 31.2454 63.8395 31.599 63.5884 31.9232C63.3521 32.2325 63.064 32.4977 62.7243 32.7187C62.3993 32.9397 62.03 33.0944 61.6164 33.1828V33.227C62.6357 33.3596 63.4481 33.7795 64.0537 34.4866C64.6593 35.1791 64.9621 36.041 64.9621 37.0722C64.9621 37.3227 64.94 37.61 64.8957 37.9341C64.8513 38.2435 64.7627 38.5676 64.6298 38.9065C64.4968 39.2306 64.3048 39.5547 64.0537 39.8788C63.8026 40.2029 63.4628 40.4902 63.0345 40.7407C62.6209 40.9764 62.1039 41.1753 61.4835 41.3374C60.8779 41.4847 60.1467 41.5584 59.29 41.5584H52.5986ZM54.1053 33.9784V40.2766H59.29C59.8513 40.2766 60.383 40.2324 60.8853 40.144C61.3875 40.0409 61.8306 39.8641 62.2147 39.6136C62.5987 39.3632 62.9015 39.0317 63.1231 38.6192C63.3447 38.1919 63.4555 37.6615 63.4555 37.028C63.4555 36.0115 63.0936 35.2528 62.3698 34.7518C61.6607 34.2362 60.6341 33.9784 59.29 33.9784H54.1053ZM77.4806 30.1552V41.5584H76.1955V39.5031H76.1512C75.7819 40.2692 75.2427 40.8586 74.5337 41.2711C73.8395 41.6688 73.064 41.8677 72.2072 41.8677C71.4835 41.8677 70.8631 41.7646 70.3461 41.5584C69.8438 41.3668 69.4302 41.0869 69.1053 40.7186C68.7951 40.3503 68.5661 39.9009 68.4184 39.3705C68.2707 38.8402 68.1968 38.2361 68.1968 37.5584V30.1552H69.5927V37.5805C69.6223 38.6118 69.8586 39.3926 70.3018 39.923C70.7597 40.4534 71.5425 40.7186 72.6504 40.7186C73.256 40.7186 73.773 40.5934 74.2014 40.3429C74.6297 40.0777 74.9842 39.7315 75.2649 39.3042C75.5455 38.877 75.7523 38.3908 75.8853 37.8457C76.0182 37.2859 76.0847 36.7187 76.0847 36.1441V30.1552H77.4806ZM88.074 33.4922H89.4699C89.4403 32.8734 89.3148 32.3357 89.0932 31.879C88.8716 31.4222 88.5688 31.0392 88.1848 30.7298C87.8155 30.4204 87.3797 30.1921 86.8775 30.0447C86.3901 29.8974 85.8583 29.8237 85.2822 29.8237C84.78 29.8237 84.2704 29.8827 83.7534 30.0005C83.2512 30.1184 82.7933 30.3026 82.3797 30.553C81.9661 30.8035 81.6263 31.135 81.3605 31.5475C81.1093 31.96 80.9838 32.4535 80.9838 33.0281C80.9838 33.5143 81.065 33.9268 81.2275 34.2657C81.39 34.5898 81.6116 34.8697 81.8922 35.1054C82.1876 35.3264 82.5274 35.5179 82.9114 35.68C83.2955 35.8273 83.7165 35.9599 84.1744 36.0778L85.9691 36.4756C86.2793 36.5492 86.5821 36.6376 86.8775 36.7408C87.1877 36.8439 87.461 36.9765 87.6973 37.1385C87.9336 37.2859 88.1183 37.4774 88.2512 37.7131C88.3989 37.9341 88.4728 38.214 88.4728 38.5529C88.4728 38.9507 88.3694 39.2895 88.1626 39.5694C87.9706 39.8346 87.7195 40.0556 87.4093 40.2324C87.0991 40.4092 86.7593 40.5344 86.3901 40.6081C86.0355 40.6818 85.6884 40.7186 85.3487 40.7186C84.4181 40.7186 83.6352 40.4829 83.0001 40.0114C82.3797 39.5252 82.0399 38.8107 81.9808 37.8678H80.585C80.7031 39.2674 81.1758 40.284 82.003 40.9175C82.845 41.551 83.938 41.8677 85.2822 41.8677C85.814 41.8677 86.3531 41.8088 86.8997 41.6909C87.4462 41.5731 87.9337 41.3816 88.362 41.1164C88.8052 40.8365 89.1671 40.4829 89.4477 40.0556C89.7284 39.6136 89.8687 39.0833 89.8687 38.4645C89.8687 37.9636 89.7727 37.529 89.5806 37.1606C89.3886 36.7923 89.1375 36.4829 88.8273 36.2325C88.5319 35.982 88.1848 35.7831 87.7859 35.6358C87.4019 35.4737 87.0104 35.3632 86.6116 35.3043L84.7505 34.8844C84.5141 34.8255 84.2556 34.7518 83.975 34.6634C83.6943 34.5603 83.4358 34.4351 83.1995 34.2878C82.9631 34.1404 82.7637 33.9636 82.6012 33.7574C82.4535 33.5364 82.3797 33.2712 82.3797 32.9618C82.3797 32.5935 82.4609 32.2841 82.6234 32.0336C82.7859 31.7832 83.0001 31.5843 83.2659 31.437C83.5318 31.2749 83.8199 31.1644 84.1301 31.1055C84.455 31.0318 84.7726 30.995 85.0828 30.995C85.4816 30.995 85.8583 31.0466 86.2128 31.1497C86.5673 31.2381 86.8775 31.3854 87.1434 31.5917C87.424 31.7979 87.6456 32.0631 87.8081 32.3872C87.9706 32.6966 88.0592 33.0649 88.074 33.4922ZM93.0248 28.0116V25.7796H94.4207V28.0116H93.0248ZM93.0248 41.5584V30.1552H94.4207V41.5584H93.0248ZM98.1778 30.1552V41.5584H99.5737V34.9065C99.5885 34.3467 99.6771 33.831 99.8396 33.3596C100.017 32.8734 100.253 32.4609 100.549 32.122C100.859 31.7685 101.228 31.4959 101.656 31.3044C102.1 31.0981 102.602 30.995 103.163 30.995C103.724 30.995 104.19 31.0834 104.559 31.2602C104.943 31.437 105.246 31.6801 105.467 31.9895C105.689 32.2988 105.844 32.6672 105.933 33.0944C106.021 33.5069 106.066 33.9563 106.066 34.4424V41.5584H107.462V34.2215C107.462 33.5438 107.395 32.9323 107.262 32.3872C107.129 31.8421 106.9 31.3854 106.575 31.0171C106.25 30.634 105.815 30.3394 105.268 30.1331C104.736 29.9269 104.072 29.8237 103.274 29.8237C102.462 29.8237 101.716 30.0374 101.036 30.4646C100.357 30.8771 99.8839 31.4296 99.618 32.122H99.5737V30.1552H98.1778ZM112.028 35.0612H119.429C119.414 34.5308 119.318 34.0226 119.141 33.5364C118.978 33.0502 118.742 32.623 118.432 32.2546C118.121 31.8716 117.745 31.5696 117.302 31.3486C116.859 31.1129 116.356 30.995 115.795 30.995C115.219 30.995 114.709 31.1129 114.266 31.3486C113.823 31.5696 113.446 31.8716 113.136 32.2546C112.826 32.623 112.575 33.0576 112.383 33.5585C112.206 34.0447 112.087 34.5456 112.028 35.0612ZM120.825 36.2325H112.028C112.028 36.7334 112.095 37.2564 112.228 37.8015C112.375 38.3319 112.604 38.8107 112.915 39.2379C113.225 39.6652 113.616 40.0188 114.089 40.2987C114.562 40.5786 115.13 40.7186 115.795 40.7186C116.814 40.7186 117.612 40.4534 118.188 39.923C118.764 39.3926 119.163 38.6855 119.384 37.8015H120.78C120.485 39.098 119.938 40.0998 119.141 40.807C118.358 41.5142 117.243 41.8677 115.795 41.8677C114.894 41.8677 114.111 41.713 113.446 41.4037C112.796 41.0795 112.265 40.6449 111.851 40.0998C111.437 39.54 111.127 38.8991 110.92 38.1772C110.728 37.4406 110.632 36.6671 110.632 35.8568C110.632 35.1054 110.728 34.3688 110.92 33.6469C111.127 32.925 111.437 32.2841 111.851 31.7243C112.265 31.1497 112.796 30.693 113.446 30.3541C114.111 30.0005 114.894 29.8237 115.795 29.8237C116.711 29.8237 117.494 30.0079 118.144 30.3762C118.794 30.7445 119.318 31.2307 119.717 31.8348C120.13 32.4241 120.426 33.1091 120.603 33.89C120.78 34.6561 120.854 35.4369 120.825 36.2325ZM130.652 33.4922H132.048C132.019 32.8734 131.893 32.3357 131.672 31.879C131.45 31.4222 131.147 31.0392 130.763 30.7298C130.394 30.4204 129.958 30.1921 129.456 30.0447C128.968 29.8974 128.437 29.8237 127.861 29.8237C127.358 29.8237 126.849 29.8827 126.332 30.0005C125.83 30.1184 125.372 30.3026 124.958 30.553C124.544 30.8035 124.205 31.135 123.939 31.5475C123.688 31.96 123.562 32.4535 123.562 33.0281C123.562 33.5143 123.643 33.9268 123.806 34.2657C123.968 34.5898 124.19 34.8697 124.471 35.1054C124.766 35.3264 125.106 35.5179 125.49 35.68C125.874 35.8273 126.295 35.9599 126.753 36.0778L128.547 36.4756C128.858 36.5492 129.16 36.6376 129.456 36.7408C129.766 36.8439 130.039 36.9765 130.276 37.1385C130.512 37.2859 130.697 37.4774 130.83 37.7131C130.977 37.9341 131.051 38.214 131.051 38.5529C131.051 38.9507 130.948 39.2895 130.741 39.5694C130.549 39.8346 130.298 40.0556 129.988 40.2324C129.677 40.4092 129.338 40.5344 128.968 40.6081C128.614 40.6818 128.267 40.7186 127.927 40.7186C126.996 40.7186 126.214 40.4829 125.578 40.0114C124.958 39.5252 124.618 38.8107 124.559 37.8678H123.163C123.282 39.2674 123.754 40.284 124.581 40.9175C125.423 41.551 126.516 41.8677 127.861 41.8677C128.392 41.8677 128.932 41.8088 129.478 41.6909C130.025 41.5731 130.512 41.3816 130.94 41.1164C131.384 40.8365 131.745 40.4829 132.026 40.0556C132.307 39.6136 132.447 39.0833 132.447 38.4645C132.447 37.9636 132.351 37.529 132.159 37.1606C131.967 36.7923 131.716 36.4829 131.406 36.2325C131.11 35.982 130.763 35.7831 130.364 35.6358C129.98 35.4737 129.589 35.3632 129.19 35.3043L127.329 34.8844C127.092 34.8255 126.834 34.7518 126.553 34.6634C126.273 34.5603 126.014 34.4351 125.778 34.2878C125.542 34.1404 125.342 33.9636 125.18 33.7574C125.032 33.5364 124.958 33.2712 124.958 32.9618C124.958 32.5935 125.039 32.2841 125.202 32.0336C125.364 31.7832 125.578 31.5843 125.844 31.437C126.11 31.2749 126.398 31.1644 126.708 31.1055C127.033 31.0318 127.351 30.995 127.661 30.995C128.06 30.995 128.437 31.0466 128.791 31.1497C129.146 31.2381 129.456 31.3854 129.722 31.5917C130.002 31.7979 130.224 32.0631 130.386 32.3872C130.549 32.6966 130.638 33.0649 130.652 33.4922ZM143.823 33.4922H142.428C142.413 33.0649 142.324 32.6966 142.162 32.3872C141.999 32.0631 141.778 31.7979 141.497 31.5917C141.231 31.3854 140.921 31.2381 140.566 31.1497C140.212 31.0466 139.835 30.995 139.436 30.995C139.126 30.995 138.809 31.0318 138.484 31.1055C138.173 31.1644 137.885 31.2749 137.619 31.437C137.354 31.5843 137.139 31.7832 136.977 32.0336C136.814 32.2841 136.733 32.5935 136.733 32.9618C136.733 33.2712 136.807 33.5364 136.955 33.7574C137.117 33.9636 137.317 34.1404 137.553 34.2878C137.789 34.4351 138.048 34.5603 138.329 34.6634C138.609 34.7518 138.868 34.8255 139.104 34.8844L140.965 35.3043C141.364 35.3632 141.755 35.4737 142.139 35.6358C142.538 35.7831 142.885 35.982 143.181 36.2325C143.491 36.4829 143.742 36.7923 143.934 37.1606C144.126 37.529 144.222 37.9636 144.222 38.4645C144.222 39.0833 144.082 39.6136 143.801 40.0556C143.521 40.4829 143.159 40.8365 142.716 41.1164C142.287 41.3816 141.8 41.5731 141.253 41.6909C140.707 41.8088 140.168 41.8677 139.636 41.8677C138.292 41.8677 137.199 41.551 136.357 40.9175C135.529 40.284 135.057 39.2674 134.939 37.8678H136.334C136.393 38.8107 136.733 39.5252 137.354 40.0114C137.989 40.4829 138.772 40.7186 139.702 40.7186C140.042 40.7186 140.389 40.6818 140.744 40.6081C141.113 40.5344 141.453 40.4092 141.763 40.2324C142.073 40.0556 142.324 39.8346 142.516 39.5694C142.723 39.2895 142.826 38.9507 142.826 38.5529C142.826 38.214 142.753 37.9341 142.605 37.7131C142.472 37.4774 142.287 37.2859 142.051 37.1385C141.815 36.9765 141.541 36.8439 141.231 36.7408C140.936 36.6376 140.633 36.5492 140.323 36.4756L138.528 36.0778C138.07 35.9599 137.649 35.8273 137.265 35.68C136.881 35.5179 136.541 35.3264 136.246 35.1054C135.965 34.8697 135.744 34.5898 135.581 34.2657C135.419 33.9268 135.337 33.5143 135.337 33.0281C135.337 32.4535 135.463 31.96 135.714 31.5475C135.98 31.135 136.32 30.8035 136.733 30.553C137.147 30.3026 137.605 30.1184 138.107 30.0005C138.624 29.8827 139.134 29.8237 139.636 29.8237C140.212 29.8237 140.744 29.8974 141.231 30.0447C141.733 30.1921 142.169 30.4204 142.538 30.7298C142.922 31.0392 143.225 31.4222 143.447 31.879C143.668 32.3357 143.794 32.8734 143.823 33.4922Z" fill="white"/>
</svg>
