<svg width="436" height="436" viewBox="0 0 436 436" fill="none" xmlns="http://www.w3.org/2000/svg">
<path d="M81.8523 218C57.3905 178.444 44.2975 131.64 53.097 84.2206C56.0989 68.0461 69.0775 55.4805 85.3284 52.9212C99.8679 50.63 110.378 49.4823 130.972 51.1936C123.55 63.5149 119.16 75.8036 114.543 87.7467C104.256 87.3729 93.777 89.4308 90.4579 90.4543C82.0998 121.348 92.8853 174.24 125.47 218H81.8523Z" fill="#2058BB"/>
<path d="M121.726 121.728C132.399 76.4605 156.236 34.1063 195.989 6.79851C209.549 -2.51663 227.612 -2.22342 240.913 7.45688C252.814 16.118 261.056 22.7387 274.41 38.511C260.449 41.975 248.654 47.5602 236.944 52.741C229.935 45.2025 221.071 39.2478 217.999 37.6248C190.244 53.5596 160.47 98.5886 152.568 152.571L121.726 121.728Z" fill="#2058BB"/>
<path d="M217.997 81.8498C257.554 57.388 304.356 44.2938 351.776 53.0934C367.951 56.0952 380.516 69.0739 383.076 85.3247C385.366 99.8642 386.514 110.374 384.804 130.97C372.482 123.548 360.194 119.157 348.251 114.539C348.623 104.254 346.567 93.7744 345.542 90.4553C314.648 82.0972 261.755 92.8827 217.997 125.467V81.8498Z" fill="#2058BB"/>
<path d="M314.269 121.726C359.537 132.4 401.89 156.236 429.198 195.989C438.514 209.549 438.221 227.611 428.541 240.914C419.88 252.814 413.259 261.057 397.487 274.41C394.021 260.45 388.437 248.655 383.257 236.945C390.795 229.935 396.749 221.071 398.373 218C382.437 190.244 337.409 160.47 283.427 152.569L314.269 121.726Z" fill="#2058BB"/>
<path d="M354.149 217.996C378.611 257.553 391.704 304.356 382.904 351.775C379.903 367.951 366.924 380.515 350.673 383.076C336.134 385.366 325.624 386.515 305.029 384.802C312.45 372.482 316.841 360.194 321.459 348.249C331.745 348.623 342.224 346.565 345.544 345.543C353.901 314.648 343.116 261.756 310.531 217.996H354.149Z" fill="#2058BB"/>
<path d="M314.274 314.272C303.599 359.54 279.763 401.893 240.01 429.2C226.45 438.517 208.388 438.224 195.086 428.543C183.186 419.882 174.943 413.261 161.59 397.489C175.55 394.024 187.344 388.44 199.054 383.259C206.065 390.796 214.929 396.751 218 398.375C245.755 382.439 275.53 337.412 283.431 283.429L314.274 314.272Z" fill="#2058BB"/>
<path d="M217.997 354.149C178.44 378.611 131.637 391.704 84.2179 382.906C68.0422 379.904 55.4778 366.925 52.9174 350.675C50.6273 336.135 49.4784 325.624 51.1898 305.03C63.5122 312.451 75.7998 316.842 87.7429 321.459C87.3701 331.746 89.4281 342.225 90.4516 345.544C121.345 353.902 174.238 343.116 217.997 310.531V354.149Z" fill="#2058BB"/>
<path d="M121.728 314.273C76.4604 303.6 34.1073 279.764 6.79845 240.01C-2.51669 226.451 -2.22348 208.387 7.4579 195.086C16.118 183.185 22.7386 174.943 38.512 161.589C41.976 175.55 47.5601 187.345 52.7409 199.054C45.2024 206.064 39.2489 214.928 37.6248 218C53.5595 245.756 98.5885 275.529 152.571 283.43L121.728 314.273Z" fill="#2058BB"/>
</svg>
