<svg width="80" height="80" viewBox="0 0 80 80" fill="none" xmlns="http://www.w3.org/2000/svg">
<path d="M15.0183 39.9999C10.5299 32.7419 8.12755 24.1541 9.74215 15.4533C10.2929 12.4855 12.6743 10.1799 15.6561 9.7103C18.3239 9.2899 20.2523 9.0793 24.0311 9.3933C22.6693 11.6541 21.8637 13.9089 21.0165 16.1003C19.1291 16.0317 17.2063 16.4093 16.5973 16.5971C15.0637 22.2657 17.0427 31.9707 23.0215 39.9999H15.0183Z" fill="#2058BB"/>
<path d="M22.3348 22.3354C24.2932 14.0294 28.667 6.25804 35.961 1.24744C38.4492 -0.461755 41.7634 -0.407955 44.204 1.36825C46.3876 2.95744 47.8999 4.17224 50.3501 7.06624C47.7886 7.70184 45.6244 8.72664 43.4758 9.67724C42.1896 8.29404 40.5631 7.20145 39.9995 6.90365C34.907 9.82744 29.4438 18.0896 27.994 27.9946L22.3348 22.3354Z" fill="#2058BB"/>
<path d="M39.9992 15.0185C47.2574 10.5301 55.845 8.12751 64.5458 9.74211C67.5138 10.2929 69.8192 12.6743 70.289 15.6561C70.7092 18.3239 70.9198 20.2523 70.606 24.0313C68.3452 22.6695 66.0904 21.8639 63.899 21.0165C63.9674 19.1293 63.59 17.2065 63.402 16.5975C57.7334 15.0639 48.0282 17.0429 39.9992 23.0217V15.0185Z" fill="#2058BB"/>
<path d="M57.6644 22.335C65.9704 24.2934 73.7416 28.667 78.7522 35.9612C80.4616 38.4492 80.4078 41.7634 78.6316 44.2042C77.0424 46.3878 75.8276 47.9002 72.9336 50.3504C72.2978 47.7888 71.2732 45.6246 70.3226 43.476C71.7058 42.1898 72.7982 40.5634 73.0962 39.9998C70.1722 34.907 61.9102 29.444 52.0052 27.9942L57.6644 22.335Z" fill="#2058BB"/>
<path d="M64.9817 39.9992C69.4701 47.2572 71.8725 55.845 70.2579 64.5458C69.7071 67.5138 67.3257 69.8192 64.3439 70.289C61.6761 70.7092 59.7477 70.92 55.9689 70.6058C57.3305 68.3452 58.1361 66.0904 58.9835 63.8988C60.8709 63.9674 62.7937 63.5898 63.4027 63.4022C64.9361 57.7334 62.9573 48.0284 56.9783 39.9992H64.9817Z" fill="#2058BB"/>
<path d="M57.6646 57.6646C55.706 65.9706 51.3324 73.7418 44.0382 78.7524C41.5502 80.4618 38.236 80.408 35.7954 78.6318C33.6118 77.0426 32.0994 75.8278 29.6492 72.9338C32.2108 72.298 34.3748 71.2734 36.5234 70.3228C37.8098 71.7058 39.4362 72.7984 39.9998 73.0964C45.0924 70.1724 50.5556 61.9104 52.0054 52.0054L57.6646 57.6646Z" fill="#2058BB"/>
<path d="M39.9996 64.9815C32.7414 69.4699 24.1538 71.8723 15.453 70.2579C12.485 69.7071 10.1796 67.3257 9.70983 64.3439C9.28963 61.6762 9.07883 59.7476 9.39283 55.9688C11.6538 57.3306 13.9084 58.1362 16.0998 58.9834C16.0314 60.8708 16.409 62.7935 16.5968 63.4025C22.2654 64.9361 31.9704 62.9571 39.9996 56.9782V64.9815Z" fill="#2058BB"/>
<path d="M22.3354 57.6647C14.0294 55.7063 6.25822 51.3327 1.24742 44.0385C-0.461778 41.5505 -0.407978 38.2361 1.36842 35.7955C2.95742 33.6119 4.17222 32.0995 7.06642 29.6493C7.70202 32.2109 8.72662 34.3751 9.67722 36.5237C8.29402 37.8099 7.20162 39.4363 6.90362 39.9999C9.82742 45.0927 18.0896 50.5557 27.9946 52.0055L22.3354 57.6647Z" fill="#2058BB"/>
</svg>
