<svg width="32" height="32" fill="none" xmlns="http://www.w3.org/2000/svg"><rect width="32" height="32" rx="4" fill="#F5F5FA"/><path d="M29.454 21.732v-.329h-.085l-.1.226-.098-.226h-.086v.329h.06v-.248l.093.214h.063l.093-.215v.249h.06Zm-.543 0v-.273h.11v-.055h-.28v.055h.11v.273h.06Z" fill="#0099DF"/><path d="M19.708 23.146H12.29V9.814h7.418v13.332Z" fill="#6C6BBD"/><path d="M12.765 16.48a8.465 8.465 0 0 1 3.238-6.667 8.478 8.478 0 0 0-13.718 6.666 8.478 8.478 0 0 0 13.718 6.666 8.465 8.465 0 0 1-3.238-6.666Z" fill="#EB001B"/><path d="M29.714 16.48a8.478 8.478 0 0 1-13.718 6.665 8.464 8.464 0 0 0 3.239-6.666 8.464 8.464 0 0 0-3.239-6.666 8.478 8.478 0 0 1 13.718 6.666Z" fill="#0099DF"/></svg>