<svg width="92" height="92" fill="none" xmlns="http://www.w3.org/2000/svg"><g filter="url(#a)" transform="matrix(2.4886 0 0 2.49544 -68.476 -58.63)"><circle cx="46" cy="42" r="18" fill="#1885D3"/><circle cx="46" cy="42" r="16" stroke="#fff" stroke-width="4"/></g><path d="M60.337 23.72H31.668a2.697 2.697 0 0 0-2.688 2.695v42.222h34.044V26.415a2.698 2.698 0 0 0-2.687-2.695ZM48.69 44.382v-5.39h8.063v5.39H48.69Zm8.063 3.593v5.39H48.69v-5.39h8.063ZM48.69 35.398v-5.39h8.063v5.39H48.69Zm-13.438 8.984v-5.39h8.063v5.39h-8.063Zm8.063 3.593v5.39h-8.063v-5.39h8.063Zm-8.063-12.577v-5.39h8.063v5.39h-8.063Zm0 21.561h8.063v5.39h-8.063v-5.39Zm13.438 0h8.063v9.882H48.69v-9.882Z" fill="#fff"/><defs><filter id="a" x="0" y="0" width="92" height="92" filterUnits="userSpaceOnUse" color-interpolation-filters="sRGB"><feFlood flood-opacity="0" result="BackgroundImageFix"/><feColorMatrix in="SourceAlpha" values="0 0 0 0 0 0 0 0 0 0 0 0 0 0 0 0 0 0 127 0"/><feOffset dy="4"/><feGaussianBlur stdDeviation="14"/><feColorMatrix values="0 0 0 0 0 0 0 0 0 0 0 0 0 0 0 0 0 0 0 0"/><feBlend in2="BackgroundImageFix" result="effect1_dropShadow"/><feBlend in="SourceGraphic" in2="effect1_dropShadow" result="shape"/></filter></defs></svg>