<svg width="32" height="32" fill="none" xmlns="http://www.w3.org/2000/svg"><path d="M0 4a4 4 0 0 1 4-4h24a4 4 0 0 1 4 4v24a4 4 0 0 1-4 4H4a4 4 0 0 1-4-4V4Z" fill="#F5F5FA"/><path fill-rule="evenodd" clip-rule="evenodd" d="M29.714 21.496v.48h-.067v-.363l-.103.313h-.07l-.103-.312v.362h-.068v-.48h.096l.11.33.11-.33h.095Zm-.605.082v.398h-.067v-.398h-.123v-.081h.312v.08h-.122Z" fill="#F79410"/><path d="M19.826 23.142h-7.469V9.814h7.47v13.328Z" fill="#FF5F00"/><path d="M12.836 16.477a8.441 8.441 0 0 1 3.26-6.665A8.537 8.537 0 0 0 10.822 8c-4.714 0-8.535 3.795-8.535 8.477 0 4.681 3.821 8.476 8.535 8.476a8.537 8.537 0 0 0 5.276-1.812 8.441 8.441 0 0 1-3.26-6.664Z" fill="#EB001B"/><path d="M29.6 16.623c0 4.681-3.82 8.476-8.535 8.476a8.54 8.54 0 0 1-5.276-1.812 8.44 8.44 0 0 0 0-13.328 8.54 8.54 0 0 1 5.276-1.813c4.714 0 8.536 3.795 8.536 8.477Z" fill="#F79E1B"/></svg>