<svg width="20" height="21" viewBox="0 0 20 21" fill="none" xmlns="http://www.w3.org/2000/svg">
<path fill-rule="evenodd" clip-rule="evenodd" d="M4.436 2.5C4.436 1.53379 5.21979 0.75 6.186 0.75H13.814C14.7802 0.75 15.564 1.53379 15.564 2.5V5.75H18C18.9662 5.75 19.75 6.53379 19.75 7.5V14.5C19.75 15.4662 18.9662 16.25 18 16.25H15.75V18.5C15.75 19.4662 14.9662 20.25 14 20.25H6C5.03379 20.25 4.25 19.4662 4.25 18.5V16.25H2C1.03379 16.25 0.25 15.4662 0.25 14.5V7.5C0.25 6.53379 1.03379 5.75 2 5.75H4.436V2.5ZM5.936 5.75H14.064V2.5C14.064 2.36221 13.9518 2.25 13.814 2.25H6.186C6.04821 2.25 5.936 2.36221 5.936 2.5V5.75ZM2 7.25C1.86221 7.25 1.75 7.36221 1.75 7.5V14.5C1.75 14.6378 1.86221 14.75 2 14.75H4.25V12.5C4.25 12.0858 4.58579 11.75 5 11.75H15C15.4142 11.75 15.75 12.0858 15.75 12.5V14.75H18C18.1378 14.75 18.25 14.6378 18.25 14.5V7.5C18.25 7.36221 18.1378 7.25 18 7.25H2ZM14.25 13.25H5.75V18.5C5.75 18.6378 5.86221 18.75 6 18.75H14C14.1378 18.75 14.25 18.6378 14.25 18.5V13.25ZM14.25 9.5C14.25 9.08579 14.5858 8.75 15 8.75H16C16.4142 8.75 16.75 9.08579 16.75 9.5C16.75 9.91421 16.4142 10.25 16 10.25H15C14.5858 10.25 14.25 9.91421 14.25 9.5Z" fill="#718096"/>
</svg>
