<svg width="18" height="18" viewBox="0 0 18 18" fill="none" xmlns="http://www.w3.org/2000/svg">
<path fill-rule="evenodd" clip-rule="evenodd" d="M18 9C18 13.9706 13.9706 18 9 18C4.02944 18 0 13.9706 0 9C0 4.02944 4.02944 0 9 0C13.9706 0 18 4.02944 18 9ZM13.1716 11.7574C13.6951 10.967 14 10.0191 14 9C14 6.23858 11.7614 4 9 4C7.98092 4 7.03304 4.30488 6.24261 4.8284L13.1716 11.7574ZM4.8284 6.24261L11.7574 13.1716C10.967 13.6951 10.0191 14 9 14C6.23858 14 4 11.7614 4 9C4 7.98092 4.30488 7.03304 4.8284 6.24261ZM9 2C5.13401 2 2 5.13401 2 9C2 12.866 5.13401 16 9 16C12.866 16 16 12.866 16 9C16 5.13401 12.866 2 9 2Z" fill="#E53E3E"/>
</svg>
