<svg width="24" height="24" fill="none" xmlns="http://www.w3.org/2000/svg"><path d="M0 12C0 5.373 5.373 0 12 0s12 5.373 12 12-5.373 12-12 12S0 18.627 0 12Z" fill="#F0F0F0"/><mask id="a" mask-type="alpha" maskUnits="userSpaceOnUse" x="0" y="0" width="24" height="24"><path d="M0 12c0 6.627 5.373 12 12 12s12-5.373 12-12S18.627 0 12 0 0 5.373 0 12Z" fill="#F0F0F0"/></mask><g mask="url(#a)"><path d="M0 14.25h9.75V24h4.5v-9.75H24v-4.5h-9.75V0h-4.5v9.75H0v4.5Z" fill="#D80027"/><path d="M19.074 15.652 24 20.578v-4.926h-4.926ZM15.652 15.652 24 24v-2.36l-5.987-5.988h-2.36ZM21.776 24l-6.124-6.125V24h6.124Z" fill="#0052B4"/><path d="M15.652 15.652 24 24v-2.36l-5.987-5.988h-2.36Z" fill="#F0F0F0"/><path d="M15.652 15.652 24 24v-2.36l-5.987-5.988h-2.36Z" fill="#D80027"/><path d="M3.764 15.652 0 19.416v-3.764h3.764ZM8.348 16.714V24H1.062l7.286-7.286Z" fill="#0052B4"/><path d="M5.987 15.652 0 21.64V24l8.348-8.348h-2.36Z" fill="#D80027"/><path d="M4.926 8.348 0 3.422v4.926h4.926ZM8.348 8.348 0 0v2.36l5.987 5.988h2.36ZM2.224 0l6.124 6.125V0H2.224Z" fill="#0052B4"/><path d="M8.348 8.348 0 0v2.36l5.987 5.988h2.36Z" fill="#F0F0F0"/><path d="M8.348 8.348 0 0v2.36l5.987 5.988h2.36Z" fill="#D80027"/><path d="M20.236 8.348 24 4.584v3.764h-3.764ZM15.652 7.286V0h7.286l-7.286 7.286Z" fill="#0052B4"/><path d="M18.013 8.348 24 2.36V0l-8.348 8.348h2.36Z" fill="#D80027"/></g></svg>