<svg width="24" height="24" fill="none" xmlns="http://www.w3.org/2000/svg"><path d="M0 12C0 5.373 5.373 0 12 0s12 5.373 12 12-5.373 12-12 12S0 18.627 0 12Z" fill="#F0F0F0"/><mask id="a" mask-type="alpha" maskUnits="userSpaceOnUse" x="0" y="0" width="24" height="24"><path d="M0 12c0 6.627 5.373 12 12 12s12-5.373 12-12c0-6.628-5.373-12-12-12S0 5.372 0 12Z" fill="#F0F0F0"/></mask><g mask="url(#a)"><path d="M24 3H0v3h24V3ZM24 9H0v3h24V9ZM24 15H0v3h24v-3ZM24 21H0v3h24v-3Z" fill="#D80027"/><path d="M12 0H0v12.923h12V0Z" fill="#2E52B2"/><path d="m2.415 5.406-.262.806h-.849l.687.499-.262.807.686-.499.686.499-.262-.807.686-.499h-.848l-.262-.806ZM2.677 9.124l-.262-.807-.262.807h-.849l.687.499-.262.806.686-.498.686.498-.262-.806.686-.499h-.848ZM2.415 2.494l-.262.807h-.849l.687.498-.262.807.686-.499.686.499-.262-.807.686-.498h-.848l-.262-.807ZM6 5.406l-.262.806H4.89l.686.499-.262.807L6 7.019l.686.499-.262-.807.686-.499h-.848L6 5.406ZM6.262 9.124 6 8.317l-.262.807H4.89l.686.499-.262.806L6 9.931l.686.498-.262-.806.686-.499h-.848ZM9.847 9.124l-.262-.807-.262.807h-.848l.686.499-.262.806.686-.498.686.498-.262-.806.687-.499h-.849ZM9.585 5.406l-.262.806h-.848l.686.499-.262.807.686-.499.686.499-.262-.807.687-.499h-.849l-.262-.806ZM6 2.494l-.262.807H4.89l.686.498-.262.807L6 4.107l.686.499-.262-.807.686-.498h-.848L6 2.494ZM9.585 2.494l-.262.807h-.848l.686.498-.262.807.686-.499.686.499-.262-.807.687-.498h-.849l-.262-.807Z" fill="#F0F0F0"/></g></svg>