<svg width="32" height="32" fill="none" xmlns="http://www.w3.org/2000/svg"><path d="M0 4a4 4 0 0 1 4-4h24a4 4 0 0 1 4 4v24a4 4 0 0 1-4 4H4a4 4 0 0 1-4-4V4Z" fill="#F5F5FA"/><path d="M14.172 20.434H11.95l1.39-8.85h2.221l-1.39 8.85ZM22.227 11.805a5.335 5.335 0 0 0-1.993-.376c-2.194 0-3.74 1.205-3.75 2.928-.017 1.27 1.107 1.977 1.948 2.4.86.434 1.152.716 1.152 1.103-.009.593-.694.866-1.334.866-.887 0-1.363-.141-2.085-.47l-.293-.142-.31 1.986c.52.245 1.48.462 2.478.471 2.33 0 3.849-1.186 3.867-3.022.009-1.008-.585-1.78-1.865-2.41-.777-.405-1.253-.678-1.253-1.093.009-.377.402-.762 1.28-.762a3.681 3.681 0 0 1 1.655.339l.2.094.303-1.912ZM25.18 17.299l.887-2.477c-.009.02.183-.518.293-.847l.155.763s.42 2.118.512 2.56H25.18Zm2.743-5.715h-1.719c-.53 0-.932.16-1.161.734l-3.3 8.116h2.331l.466-1.328h2.853c.064.311.265 1.328.265 1.328h2.057l-1.792-8.85ZM10.093 11.584l-2.176 6.035-.238-1.224c-.402-1.413-1.664-2.947-3.072-3.71l1.994 7.74h2.35l3.492-8.841h-2.35Z" fill="#15195A"/><path d="M5.897 11.584H2.322l-.036.178c2.788.735 4.635 2.505 5.394 4.633l-.777-4.068c-.128-.565-.521-.725-1.006-.743Z" fill="#15195A"/></svg>