<svg width="163" height="56" viewBox="0 0 163 56" fill="none" xmlns="http://www.w3.org/2000/svg">
<path d="M10.4127 27.9717C7.51307 23.2829 5.96106 17.7349 7.00414 12.114C7.35997 10.1967 8.89841 8.70722 10.8247 8.40385C12.5482 8.13226 13.794 7.9962 16.2352 8.19906C15.3554 9.65959 14.835 11.1163 14.2877 12.532C13.0684 12.4876 11.8262 12.7316 11.4328 12.8529C10.442 16.515 11.7205 22.7846 15.583 27.9717H10.4127Z" fill="#2058BB"/>
<path d="M15.1393 16.56C16.4045 11.1941 19.2301 6.1736 23.9422 2.93662C25.5496 1.83243 27.6907 1.86719 29.2674 3.01466C30.678 4.04132 31.6551 4.82612 33.238 6.69572C31.5831 7.10633 30.185 7.76838 28.7969 8.38249C27.966 7.48891 26.9153 6.78306 26.5512 6.59067C23.2613 8.47953 19.7319 13.8171 18.7953 20.216L15.1393 16.56Z" fill="#2058BB"/>
<path d="M26.551 11.8331C31.24 8.93347 36.7878 7.38133 42.4087 8.4244C44.3261 8.78023 45.8155 10.3187 46.119 12.245C46.3905 13.9685 46.5265 15.2143 46.3238 17.6556C44.8633 16.7758 43.4066 16.2554 41.9909 15.708C42.0351 14.4888 41.7913 13.2466 41.6698 12.8532C38.0078 11.8624 31.7379 13.1409 26.551 17.0034V11.8331Z" fill="#2058BB"/>
<path d="M37.9632 16.5598C43.3291 17.8249 48.3495 20.6504 51.5864 25.3626C52.6908 26.97 52.656 29.111 51.5085 30.6878C50.4819 32.0985 49.6971 33.0756 47.8275 34.6584C47.4167 33.0036 46.7548 31.6055 46.1407 30.2174C47.0343 29.3865 47.74 28.3358 47.9325 27.9717C46.0435 24.6816 40.7061 21.1524 34.3072 20.2158L37.9632 16.5598Z" fill="#2058BB"/>
<path d="M42.6903 27.9713C45.59 32.6601 47.142 38.2081 46.0989 43.829C45.7431 45.7464 44.2046 47.2358 42.2783 47.5393C40.5548 47.8107 39.309 47.9469 36.8678 47.7439C37.7474 46.2835 38.2679 44.8269 38.8153 43.411C40.0346 43.4553 41.2768 43.2114 41.6702 43.0902C42.6609 39.428 41.3825 33.1583 37.5199 27.9713H42.6903Z" fill="#2058BB"/>
<path d="M37.9633 39.3836C36.698 44.7495 33.8725 49.7699 29.1603 53.0069C27.553 54.1112 25.4119 54.0764 23.8352 52.9289C22.4246 51.9023 21.4475 51.1175 19.8646 49.2479C21.5195 48.8371 22.9175 48.1752 24.3055 47.5611C25.1366 48.4546 26.1873 49.1604 26.5514 49.3529C29.8413 47.464 33.3707 42.1265 34.3073 35.7276L37.9633 39.3836Z" fill="#2058BB"/>
<path d="M26.5513 44.1105C21.8623 47.0102 16.3145 48.5622 10.6935 47.5192C8.77611 47.1634 7.28676 45.6249 6.98325 43.6986C6.71179 41.9752 6.57561 40.7292 6.77847 38.288C8.23913 39.1678 9.69566 39.6882 11.1114 40.2355C11.0672 41.4548 11.3111 42.697 11.4324 43.0905C15.0945 44.0812 21.3642 42.8027 26.5513 38.9401V44.1105Z" fill="#2058BB"/>
<path d="M15.1397 39.3837C9.77382 38.1185 4.75342 35.293 1.51632 30.5808C0.412128 28.9735 0.446885 26.8323 1.59449 25.2556C2.62102 23.8449 3.40581 22.8679 5.27554 21.285C5.68616 22.9398 6.34808 24.338 6.96219 25.726C6.0686 26.5569 5.36289 27.6076 5.17037 27.9717C7.05922 31.2618 12.3968 34.7911 18.7957 35.7277L15.1397 39.3837Z" fill="#2058BB"/>
<path d="M87.3772 20.7036H83.7309V15.9206H87.2576C88.4544 15.9206 89.3613 16.1128 89.9524 16.4918C90.5285 16.8611 90.8085 17.4448 90.8085 18.2762C90.8085 19.9096 89.6861 20.7036 87.3772 20.7036ZM83.7309 8.84588H86.445C87.7053 8.84588 88.651 8.98733 89.2555 9.26651C89.8261 9.53032 90.1035 10.0577 90.1035 10.8789C90.1035 11.2605 90.0108 11.6099 89.8245 11.923C89.5877 12.3595 89.256 12.6468 88.8107 12.8015C88.3479 12.9619 87.6766 13.0434 86.8156 13.0434H83.7309V8.84588ZM91.545 14.2328C93.1165 13.3873 93.9127 12.1038 93.9127 10.4127C93.9127 9.88543 93.8247 9.37791 93.6517 8.90406C93.4787 8.43021 93.2238 7.99127 92.8937 7.59934C92.5655 7.20898 92.1816 6.88145 91.7535 6.62588C91.2517 6.32207 90.6773 6.1135 90.046 6.00662C89.4267 5.90211 88.6855 5.84912 87.8431 5.84912H82.1666C81.3678 5.84912 80.7754 6.03656 80.4064 6.40556C80.0369 6.77502 79.8496 7.37518 79.8496 8.19001V23.7004H87.5207C88.4483 23.7004 89.2718 23.6535 89.968 23.5613C90.6719 23.4688 91.3055 23.306 91.8537 23.0768C92.7326 22.6909 93.4409 22.0847 93.9582 21.2757C94.4751 20.4675 94.7375 19.5469 94.7375 18.5392C94.7375 16.4689 93.6641 15.0218 91.545 14.2328Z" fill="#2058BB"/>
<path d="M68.4368 9.99934L68.4582 10.0582L68.4798 9.99934L70.8295 16.55H66.0869L68.4368 9.99934ZM65.0425 19.5345H71.874L73.4036 23.6713H77.4219L76.3058 20.8493C76.2508 20.7047 76.1908 20.5507 76.1213 20.3785L71.2002 7.87662C71.0182 7.41147 70.8205 7.0184 70.6122 6.70815C70.3967 6.38671 70.1097 6.12301 69.7592 5.9245C69.4061 5.72475 68.9686 5.6234 68.4582 5.62329C67.9479 5.6234 67.5104 5.72475 67.1573 5.9245C66.8069 6.12301 66.5199 6.38671 66.3043 6.70815C66.096 7.0184 65.8983 7.41147 65.7164 7.87662L60.7953 20.3785C60.7258 20.5507 60.6658 20.7047 60.6107 20.8493L59.4946 23.6713H63.513L65.0425 19.5345Z" fill="#2058BB"/>
<path d="M104.618 20.7036H100.972V15.9206H104.499C105.696 15.9206 106.602 16.1128 107.194 16.4918C107.77 16.8611 108.05 17.4448 108.05 18.2762C108.05 19.9096 106.927 20.7036 104.618 20.7036ZM100.972 8.84588H103.686C104.946 8.84588 105.892 8.98733 106.497 9.26651C107.067 9.53032 107.345 10.0577 107.345 10.8789C107.345 11.2605 107.252 11.6099 107.066 11.923C106.829 12.3595 106.497 12.6468 106.052 12.8015C105.589 12.9619 104.918 13.0434 104.057 13.0434H100.972V8.84588ZM108.786 14.2328C110.358 13.3873 111.154 12.1038 111.154 10.4127C111.154 9.88543 111.066 9.37791 110.893 8.90406C110.72 8.43021 110.465 7.99127 110.135 7.59934C109.807 7.20898 109.423 6.88145 108.995 6.62588C108.493 6.32207 107.919 6.1135 107.287 6.00662C106.668 5.90211 105.927 5.84912 105.084 5.84912H99.4077C98.6091 5.84912 98.0167 6.03656 97.6476 6.40556C97.2781 6.77502 97.0909 7.37518 97.0909 8.19001V23.7004H104.762C105.69 23.7004 106.513 23.6535 107.209 23.5613C107.913 23.4688 108.547 23.306 109.095 23.0768C109.974 22.6909 110.682 22.0847 111.2 21.2757C111.716 20.4675 111.979 19.5469 111.979 18.5392C111.979 16.4689 110.905 15.0218 108.786 14.2328Z" fill="#2058BB"/>
<path d="M61.185 40.0039V33.6651H67.0019C69.67 33.6651 71.0041 34.7754 71.0041 36.9961C71.0041 37.4104 70.9212 37.7998 70.7555 38.1644C70.5898 38.529 70.3412 38.8522 70.0097 39.1339C69.6783 39.3991 69.264 39.6145 68.7668 39.7802C68.2696 39.9294 67.6813 40.0039 67.0019 40.0039H61.185ZM59.4946 32.2233V49.9722H67.0019C67.9631 49.9722 68.7834 49.8893 69.4629 49.7236C70.1589 49.5413 70.7389 49.3176 71.2029 49.0524C71.6835 48.7707 72.0647 48.4475 72.3464 48.0829C72.6282 47.7183 72.8436 47.3538 72.9927 46.9892C73.1419 46.608 73.2413 46.2434 73.291 45.8954C73.3408 45.5308 73.3656 45.2076 73.3656 44.9259C73.3656 43.7659 73.0259 42.7964 72.3464 42.0175C71.667 41.222 70.7555 40.7497 69.612 40.6006V40.5508C70.076 40.4514 70.4903 40.2774 70.8549 40.0288C71.2361 39.7802 71.5592 39.4819 71.8244 39.1339C72.1061 38.7693 72.3216 38.3716 72.4707 37.9407C72.6199 37.4933 72.6944 37.0375 72.6944 36.5735C72.6944 35.7449 72.537 35.0571 72.2221 34.5102C71.9073 33.9468 71.4847 33.4993 70.9544 33.1679C70.4406 32.8199 69.8357 32.5796 69.1397 32.447C68.4602 32.2978 67.7476 32.2233 67.0019 32.2233H59.4946ZM61.185 48.5304V41.4457H67.0019C68.5099 41.4457 69.6617 41.7358 70.4572 42.3158C71.2692 42.8792 71.6753 43.7327 71.6753 44.8762C71.6753 45.5888 71.551 46.1854 71.3024 46.666C71.0538 47.13 70.7141 47.5029 70.2832 47.7846C69.8523 48.0664 69.3551 48.2652 68.7917 48.3812C68.2282 48.4807 67.6316 48.5304 67.0019 48.5304H61.185Z" fill="#2058BB"/>
<path d="M87.4104 49.9722V37.1452H85.8444V43.8819C85.8444 44.5282 85.7698 45.1662 85.6206 45.796C85.4715 46.4091 85.2395 46.956 84.9246 47.4366C84.6097 47.9172 84.212 48.3067 83.7314 48.605C83.2508 48.8867 82.6708 49.0276 81.9913 49.0276C80.7484 49.0276 79.87 48.7293 79.3563 48.1327C78.8591 47.536 78.594 46.6577 78.5608 45.4977V37.1452H76.9948V45.4728C76.9948 46.2351 77.0776 46.9146 77.2433 47.5112C77.4091 48.1078 77.6659 48.6132 78.014 49.0276C78.3785 49.4419 78.8426 49.7567 79.406 49.9722C79.9861 50.2042 80.6821 50.3202 81.4941 50.3202C82.4553 50.3202 83.3254 50.0965 84.1043 49.649C84.8997 49.185 85.5046 48.5221 85.9189 47.6603H85.9686V49.9722H87.4104Z" fill="#2058BB"/>
<path d="M99.2955 40.8989H100.862C100.828 40.2028 100.688 39.5979 100.439 39.0842C100.19 38.5704 99.8506 38.1396 99.4198 37.7916C99.0055 37.4435 98.5166 37.1867 97.9531 37.0209C97.4062 36.8552 96.8096 36.7724 96.1633 36.7724C95.5999 36.7724 95.0281 36.8386 94.4481 36.9712C93.8846 37.1038 93.3709 37.311 92.9069 37.5927C92.4428 37.8744 92.0617 38.2473 91.7634 38.7113C91.4816 39.1753 91.3408 39.7305 91.3408 40.3768C91.3408 40.9237 91.4319 41.3877 91.6142 41.7689C91.7965 42.1335 92.0451 42.4484 92.36 42.7135C92.6914 42.9621 93.0726 43.1775 93.5035 43.3598C93.9343 43.5256 94.4067 43.6747 94.9204 43.8073L96.9339 44.2547C97.2819 44.3376 97.6217 44.437 97.9531 44.553C98.3011 44.669 98.6077 44.8182 98.8729 45.0005C99.138 45.1662 99.3452 45.3817 99.4943 45.6468C99.6601 45.8954 99.7429 46.2103 99.7429 46.5914C99.7429 47.0389 99.6269 47.42 99.3949 47.7349C99.1795 48.0332 98.8977 48.2818 98.5497 48.4807C98.2017 48.6795 97.8205 48.8204 97.4062 48.9033C97.0085 48.9861 96.619 49.0276 96.2379 49.0276C95.1938 49.0276 94.3155 48.7624 93.6029 48.2321C92.9069 47.6852 92.5257 46.8814 92.4594 45.8208H90.8933C91.0259 47.3952 91.5562 48.5387 92.4843 49.2513C93.4289 49.9639 94.6552 50.3202 96.1633 50.3202C96.7599 50.3202 97.3648 50.2539 97.978 50.1213C98.5911 49.9887 99.138 49.7733 99.6186 49.475C100.116 49.1601 100.522 48.7624 100.837 48.2818C101.152 47.7846 101.309 47.188 101.309 46.492C101.309 45.9285 101.201 45.4397 100.986 45.0253C100.77 44.611 100.489 44.263 100.141 43.9813C99.8092 43.6996 99.4198 43.4758 98.9723 43.3101C98.5414 43.1278 98.1023 43.0035 97.6548 42.9372L95.5667 42.4649C95.3016 42.3986 95.0115 42.3158 94.6967 42.2163C94.3818 42.1003 94.0918 41.9595 93.8266 41.7938C93.5615 41.628 93.3377 41.4292 93.1554 41.1972C92.9897 40.9486 92.9069 40.6503 92.9069 40.3023C92.9069 39.8879 92.998 39.5399 93.1803 39.2582C93.3626 38.9765 93.6029 38.7527 93.9012 38.587C94.1995 38.4047 94.5227 38.2804 94.8707 38.2141C95.2353 38.1313 95.5916 38.0899 95.9396 38.0899C96.387 38.0899 96.8096 38.1479 97.2074 38.2639C97.6051 38.3633 97.9531 38.529 98.2514 38.761C98.5663 38.993 98.8149 39.2913 98.9972 39.6559C99.1795 40.004 99.2789 40.4183 99.2955 40.8989Z" fill="#2058BB"/>
<path d="M104.85 32.2233V34.734H106.416V32.2233H104.85ZM104.85 37.1452V49.9722H106.416V37.1452H104.85Z" fill="#2058BB"/>
<path d="M110.631 37.1452V49.9722H112.197V42.4898C112.214 41.86 112.313 41.28 112.496 40.7497C112.695 40.2028 112.96 39.7388 113.291 39.3576C113.639 38.9599 114.053 38.6533 114.534 38.4379C115.031 38.2059 115.595 38.0899 116.224 38.0899C116.854 38.0899 117.376 38.1893 117.791 38.3882C118.221 38.587 118.561 38.8605 118.81 39.2085C119.058 39.5565 119.232 39.9708 119.332 40.4514C119.431 40.9154 119.481 41.4209 119.481 41.9678V49.9722H121.047V41.7192C121.047 40.9569 120.972 40.2691 120.823 39.6559C120.674 39.0428 120.417 38.529 120.053 38.1147C119.688 37.6838 119.199 37.3524 118.586 37.1204C117.989 36.8884 117.244 36.7724 116.349 36.7724C115.437 36.7724 114.6 37.0127 113.838 37.4932C113.076 37.9573 112.545 38.5787 112.247 39.3576H112.197V37.1452H110.631Z" fill="#2058BB"/>
<path d="M134.473 42.6638H126.171C126.237 42.0838 126.369 41.5203 126.568 40.9734C126.784 40.41 127.065 39.9211 127.413 39.5068C127.761 39.0759 128.184 38.7362 128.681 38.4876C129.178 38.2224 129.75 38.0899 130.396 38.0899C131.026 38.0899 131.59 38.2224 132.087 38.4876C132.584 38.7362 133.007 39.0759 133.355 39.5068C133.703 39.9211 133.968 40.4017 134.15 40.9486C134.349 41.4955 134.457 42.0672 134.473 42.6638ZM126.171 43.9813H136.039C136.072 43.0864 135.99 42.2081 135.791 41.3463C135.592 40.468 135.26 39.6974 134.796 39.0345C134.349 38.355 133.761 37.8081 133.031 37.3938C132.302 36.9795 131.424 36.7724 130.396 36.7724C129.386 36.7724 128.507 36.9712 127.761 37.369C127.032 37.7501 126.436 38.2639 125.972 38.9102C125.508 39.5399 125.16 40.2608 124.928 41.0729C124.712 41.8849 124.604 42.7135 124.604 43.5587C124.604 44.4702 124.712 45.3402 124.928 46.1688C125.16 46.9809 125.508 47.7018 125.972 48.3315C126.436 48.9447 127.032 49.4336 127.761 49.7982C128.507 50.1462 129.386 50.3202 130.396 50.3202C132.021 50.3202 133.272 49.9225 134.15 49.127C135.045 48.3315 135.658 47.2046 135.99 45.7462H134.424C134.175 46.7406 133.727 47.536 133.081 48.1327C132.435 48.7293 131.54 49.0276 130.396 49.0276C129.651 49.0276 129.013 48.8701 128.482 48.5552C127.952 48.2404 127.513 47.8426 127.165 47.362C126.817 46.8814 126.56 46.3428 126.394 45.7462C126.245 45.1331 126.171 44.5448 126.171 43.9813Z" fill="#2058BB"/>
<path d="M147.065 40.8989H148.631C148.598 40.2028 148.457 39.5979 148.209 39.0842C147.96 38.5704 147.621 38.1396 147.19 37.7916C146.775 37.4435 146.286 37.1867 145.723 37.0209C145.176 36.8552 144.58 36.7724 143.933 36.7724C143.37 36.7724 142.798 36.8386 142.218 36.9712C141.655 37.1038 141.141 37.311 140.677 37.5927C140.213 37.8744 139.832 38.2473 139.533 38.7113C139.252 39.1753 139.111 39.7305 139.111 40.3768C139.111 40.9237 139.202 41.3877 139.384 41.7689C139.566 42.1335 139.815 42.4484 140.13 42.7135C140.461 42.9621 140.842 43.1775 141.273 43.3598C141.704 43.5256 142.177 43.6747 142.69 43.8073L144.704 44.2547C145.052 44.3376 145.392 44.437 145.723 44.553C146.071 44.669 146.378 44.8182 146.643 45.0005C146.908 45.1662 147.115 45.3817 147.264 45.6468C147.43 45.8954 147.513 46.2103 147.513 46.5914C147.513 47.0389 147.397 47.42 147.165 47.7349C146.949 48.0332 146.668 48.2818 146.32 48.4807C145.972 48.6795 145.59 48.8204 145.176 48.9033C144.778 48.9861 144.389 49.0276 144.008 49.0276C142.964 49.0276 142.085 48.7624 141.373 48.2321C140.677 47.6852 140.296 46.8814 140.229 45.8208H138.663C138.796 47.3952 139.326 48.5387 140.254 49.2513C141.199 49.9639 142.425 50.3202 143.933 50.3202C144.53 50.3202 145.135 50.2539 145.748 50.1213C146.361 49.9887 146.908 49.7733 147.389 49.475C147.886 49.1601 148.292 48.7624 148.607 48.2818C148.921 47.7846 149.079 47.188 149.079 46.492C149.079 45.9285 148.971 45.4397 148.756 45.0253C148.54 44.611 148.259 44.263 147.911 43.9813C147.579 43.6996 147.19 43.4758 146.742 43.3101C146.311 43.1278 145.872 43.0035 145.425 42.9372L143.337 42.4649C143.071 42.3986 142.781 42.3158 142.467 42.2163C142.152 42.1003 141.862 41.9595 141.597 41.7938C141.331 41.628 141.108 41.4292 140.925 41.1972C140.76 40.9486 140.677 40.6503 140.677 40.3023C140.677 39.8879 140.768 39.5399 140.95 39.2582C141.132 38.9765 141.373 38.7527 141.671 38.587C141.969 38.4047 142.293 38.2804 142.641 38.2141C143.005 38.1313 143.361 38.0899 143.709 38.0899C144.157 38.0899 144.58 38.1479 144.977 38.2639C145.375 38.3633 145.723 38.529 146.021 38.761C146.336 38.993 146.585 39.2913 146.767 39.6559C146.949 40.004 147.049 40.4183 147.065 40.8989Z" fill="#2058BB"/>
<path d="M160.276 40.8989H161.842C161.809 40.2028 161.668 39.5979 161.42 39.0842C161.171 38.5704 160.831 38.1396 160.401 37.7916C159.986 37.4435 159.497 37.1867 158.934 37.0209C158.387 36.8552 157.79 36.7724 157.144 36.7724C156.581 36.7724 156.009 36.8386 155.429 36.9712C154.865 37.1038 154.352 37.311 153.888 37.5927C153.424 37.8744 153.042 38.2473 152.744 38.7113C152.462 39.1753 152.322 39.7305 152.322 40.3768C152.322 40.9237 152.413 41.3877 152.595 41.7689C152.777 42.1335 153.026 42.4484 153.341 42.7135C153.672 42.9621 154.053 43.1775 154.484 43.3598C154.915 43.5256 155.387 43.6747 155.901 43.8073L157.915 44.2547C158.263 44.3376 158.602 44.437 158.934 44.553C159.282 44.669 159.589 44.8182 159.854 45.0005C160.119 45.1662 160.326 45.3817 160.475 45.6468C160.641 45.8954 160.724 46.2103 160.724 46.5914C160.724 47.0389 160.608 47.42 160.376 47.7349C160.16 48.0332 159.879 48.2818 159.531 48.4807C159.182 48.6795 158.801 48.8204 158.387 48.9033C157.989 48.9861 157.6 49.0276 157.219 49.0276C156.175 49.0276 155.296 48.7624 154.584 48.2321C153.888 47.6852 153.506 46.8814 153.44 45.8208H151.874C152.007 47.3952 152.537 48.5387 153.465 49.2513C154.41 49.9639 155.636 50.3202 157.144 50.3202C157.741 50.3202 158.346 50.2539 158.959 50.1213C159.572 49.9887 160.119 49.7733 160.599 49.475C161.097 49.1601 161.503 48.7624 161.817 48.2818C162.132 47.7846 162.29 47.188 162.29 46.492C162.29 45.9285 162.182 45.4397 161.967 45.0253C161.751 44.611 161.469 44.263 161.121 43.9813C160.79 43.6996 160.401 43.4758 159.953 43.3101C159.522 43.1278 159.083 43.0035 158.636 42.9372L156.548 42.4649C156.282 42.3986 155.992 42.3158 155.677 42.2163C155.363 42.1003 155.073 41.9595 154.807 41.7938C154.542 41.628 154.319 41.4292 154.136 41.1972C153.971 40.9486 153.888 40.6503 153.888 40.3023C153.888 39.8879 153.979 39.5399 154.161 39.2582C154.343 38.9765 154.584 38.7527 154.882 38.587C155.18 38.4047 155.503 38.2804 155.851 38.2141C156.216 38.1313 156.572 38.0899 156.92 38.0899C157.368 38.0899 157.79 38.1479 158.188 38.2639C158.586 38.3633 158.934 38.529 159.232 38.761C159.547 38.993 159.796 39.2913 159.978 39.6559C160.16 40.004 160.26 40.4183 160.276 40.8989Z" fill="#2058BB"/>
</svg>
